<svg width="83" height="20" viewBox="0 0 83 20" fill="none" xmlns="http://www.w3.org/2000/svg">
<path d="M0.673828 14.5176C0.908203 12.5645 1.09375 11.0605 1.23047 10.0059C1.36719 8.95117 1.46484 8.16992 1.52344 7.66211C1.60156 7.07617 1.64062 6.73438 1.64062 6.63672C1.81641 6.03125 2.00195 5.37695 2.19727 4.67383C2.39258 3.9707 2.64648 3.31641 2.95898 2.71094C3.29102 2.10547 3.71094 1.59766 4.21875 1.1875C4.72656 0.777344 5.38086 0.572266 6.18164 0.572266C6.5332 0.572266 6.8457 0.601562 7.11914 0.660156C7.41211 0.699219 7.68555 0.777344 7.93945 0.894531C8.19336 1.01172 8.4375 1.1582 8.67188 1.33398C8.92578 1.49023 9.18945 1.68555 9.46289 1.91992C9.6582 2.0957 9.76562 2.20312 9.78516 2.24219C9.82422 2.28125 9.84375 2.39844 9.84375 2.59375C9.84375 2.84766 9.75586 3.0918 9.58008 3.32617C9.4043 3.56055 9.15039 3.67773 8.81836 3.67773C8.54492 3.67773 8.32031 3.61914 8.14453 3.50195C7.96875 3.36523 7.79297 3.21875 7.61719 3.0625C7.46094 2.88672 7.28516 2.74023 7.08984 2.62305C6.91406 2.48633 6.67969 2.41797 6.38672 2.41797C6.07422 2.41797 5.80078 2.50586 5.56641 2.68164C5.33203 2.83789 5.12695 3.04297 4.95117 3.29688C4.79492 3.55078 4.66797 3.83398 4.57031 4.14648C4.49219 4.45898 4.43359 4.75195 4.39453 5.02539L3.01758 14.4004C3.01758 14.4395 3.00781 14.5371 2.98828 14.6934C2.98828 14.8301 2.98828 14.9375 2.98828 15.0156C2.98828 15.1523 2.98828 15.3281 2.98828 15.543C2.98828 15.7383 3.00781 15.9434 3.04688 16.1582C3.08594 16.3535 3.1543 16.5293 3.25195 16.6855C3.34961 16.8223 3.49609 16.8906 3.69141 16.8906C3.80859 16.8906 3.91602 16.8516 4.01367 16.7734C4.95117 16.1484 5.75195 15.4258 6.41602 14.6055C7.09961 13.7656 7.74414 12.877 8.34961 11.9395C8.36914 11.9004 8.41797 11.8125 8.49609 11.6758C8.59375 11.5195 8.68164 11.3633 8.75977 11.207C8.85742 11.0312 8.94531 10.8652 9.02344 10.709C9.10156 10.5332 9.16016 10.4062 9.19922 10.3281C9.31641 10.0742 9.4043 9.81055 9.46289 9.53711C9.52148 9.26367 9.58984 9.00977 9.66797 8.77539C9.76562 8.54102 9.90234 8.35547 10.0781 8.21875C10.2539 8.0625 10.5273 7.98438 10.8984 7.98438C11.1719 7.98438 11.4355 8.10156 11.6895 8.33594C11.9434 8.57031 12.0703 8.84375 12.0703 9.15625V9.21484C11.582 10.6211 10.9473 11.9199 10.166 13.1113C9.4043 14.3027 8.55469 15.4844 7.61719 16.6562C7.03125 17.3594 6.35742 17.9258 5.5957 18.3555C4.83398 18.7852 3.98438 19 3.04688 19H2.90039C2.02148 18.668 1.42578 18.1797 1.11328 17.5352C0.820312 16.8711 0.673828 16.0996 0.673828 15.2207V14.5176ZM20.127 10.8262C19.9512 11.1387 19.7461 11.5195 19.5117 11.9688C19.2969 12.3984 19.0625 12.8672 18.8086 13.375C18.5547 13.8633 18.2715 14.3613 17.959 14.8691C17.666 15.3574 17.3535 15.8066 17.0215 16.2168C16.709 16.627 16.377 16.9785 16.0254 17.2715C15.6738 17.5449 15.3125 17.7109 14.9414 17.7695C14.7852 17.7695 14.6094 17.7598 14.4141 17.7402C14.2188 17.7012 14.0234 17.6523 13.8281 17.5938C13.6328 17.5156 13.4668 17.418 13.3301 17.3008C13.2129 17.1641 13.1543 16.9883 13.1543 16.7734C13.1738 14.7812 13.3203 12.9746 13.5938 11.3535C13.8672 9.71289 14.2969 8.27734 14.8828 7.04688C15.4688 5.79688 16.2207 4.76172 17.1387 3.94141C18.0566 3.12109 19.1699 2.53516 20.4785 2.18359C20.5176 2.18359 20.5859 2.18359 20.6836 2.18359C20.8008 2.16406 20.8789 2.1543 20.918 2.1543C21.5039 2.13477 21.9238 2.4082 22.1777 2.97461C22.4512 3.52148 22.6465 4.40039 22.7637 5.61133C22.9004 6.80273 22.9883 8.3457 23.0273 10.2402C23.0859 12.1152 23.1934 14.3711 23.3496 17.0078C23.4082 17.2227 23.4375 17.4082 23.4375 17.5645C23.457 17.7207 23.4668 17.9062 23.4668 18.1211C23.4668 18.4141 23.3789 18.6387 23.2031 18.7949C23.0273 18.9316 22.8027 19 22.5293 19C21.9629 19 21.5625 18.8438 21.3281 18.5312C21.0938 18.2188 20.9375 17.7988 20.8594 17.2715C20.8594 17.252 20.8398 17.0957 20.8008 16.8027C20.7812 16.5098 20.7422 16.1777 20.6836 15.8066C20.6445 15.416 20.6055 15.0254 20.5664 14.6348C20.5273 14.2441 20.498 13.9219 20.4785 13.668V13.5508C20.4395 13.3555 20.4102 13.1113 20.3906 12.8184C20.3906 12.5254 20.3711 12.2422 20.332 11.9688C20.293 11.6367 20.2637 11.3047 20.2441 10.9727L20.127 10.8262ZM19.4824 5.02539C18.9551 5.41602 18.4375 5.94336 17.9297 6.60742C17.4219 7.27148 17.0605 7.91602 16.8457 8.54102C16.748 8.83398 16.6406 9.23438 16.5234 9.74219C16.4062 10.25 16.2988 10.7578 16.2012 11.2656C16.123 11.7539 16.0547 12.2129 15.9961 12.6426C15.9375 13.0527 15.9082 13.3164 15.9082 13.4336C15.9277 13.4336 15.9473 13.4141 15.9668 13.375C16.0059 13.3359 16.0352 13.3066 16.0547 13.2871C17.2656 12.1152 18.1152 10.8555 18.6035 9.50781C19.1113 8.14062 19.4043 6.64648 19.4824 5.02539ZM26.3086 17.7402C26.2695 17.0371 26.2012 16.0996 26.1035 14.9277C26.0254 13.7363 25.9277 12.5059 25.8105 11.2363C25.7129 9.9668 25.6055 8.76562 25.4883 7.63281C25.3711 6.5 25.2734 5.62109 25.1953 4.99609C25.1953 4.74219 25.3125 4.57617 25.5469 4.49805C25.7812 4.41992 26.0059 4.38086 26.2207 4.38086C26.4941 4.38086 26.7773 4.45898 27.0703 4.61523C27.3828 4.77148 27.5781 4.98633 27.6562 5.25977C27.6562 5.33789 27.666 5.48438 27.6855 5.69922C27.7051 5.89453 27.7148 6.09961 27.7148 6.31445C27.7344 6.5293 27.7539 6.74414 27.7734 6.95898C27.793 7.1543 27.8027 7.29102 27.8027 7.36914C27.8027 7.48633 27.8027 7.57422 27.8027 7.63281C27.8027 7.69141 27.8027 7.75 27.8027 7.80859C27.8027 7.84766 27.8125 7.89648 27.832 7.95508C27.8516 8.01367 27.8809 8.11133 27.9199 8.24805C27.959 8.20898 27.998 8.16016 28.0371 8.10156C28.0957 8.04297 28.1348 8.00391 28.1543 7.98438C28.4668 7.53516 28.7695 7.14453 29.0625 6.8125C29.3555 6.46094 29.6582 6.13867 29.9707 5.8457C30.2832 5.5332 30.625 5.21094 30.9961 4.87891C31.3867 4.52734 31.8359 4.12695 32.3438 3.67773C32.4609 3.58008 32.5488 3.51172 32.6074 3.47266C32.666 3.41406 32.7148 3.375 32.7539 3.35547C32.8125 3.31641 32.8711 3.29688 32.9297 3.29688C32.9883 3.27734 33.0664 3.26758 33.1641 3.26758C33.4961 3.26758 33.8281 3.38477 34.1602 3.61914C34.5117 3.83398 34.6875 4.13672 34.6875 4.52734C34.6875 4.66406 34.6387 4.81055 34.541 4.9668C34.4434 5.10352 34.3262 5.24023 34.1895 5.37695C34.0527 5.49414 33.9062 5.60156 33.75 5.69922C33.6133 5.79688 33.4863 5.86523 33.3691 5.9043C32.8613 6.35352 32.3242 6.87109 31.7578 7.45703C31.1914 8.02344 30.6641 8.63867 30.1758 9.30273C29.6875 9.9668 29.2871 10.6602 28.9746 11.3828C28.6621 12.1055 28.5059 12.8281 28.5059 13.5508C28.5059 14.2148 28.5547 14.8691 28.6523 15.5137C28.75 16.1582 28.7988 16.8125 28.7988 17.4766V18.502C28.6426 18.6582 28.5059 18.7852 28.3887 18.8828C28.2715 18.9805 28.1055 19.0293 27.8906 19.0293C27.5586 19.0293 27.2363 18.8926 26.9238 18.6191C26.6113 18.3262 26.4062 18.0332 26.3086 17.7402ZM47.6953 10.6797C47.6562 11.0312 47.6074 11.3047 47.5488 11.5C47.5098 11.6953 47.4316 11.8711 47.3145 12.0273C47.1973 12.1836 47.0312 12.3496 46.8164 12.5254C46.6016 12.6816 46.3086 12.916 45.9375 13.2285C45.5664 13.5215 45.1074 13.9121 44.5605 14.4004C44.0137 14.8887 43.3496 15.5234 42.5684 16.3047C42.2559 16.5977 41.9336 16.9004 41.6016 17.2129C41.2695 17.5254 40.918 17.8086 40.5469 18.0625C40.1953 18.2969 39.8242 18.4922 39.4336 18.6484C39.043 18.8047 38.6328 18.8828 38.2031 18.8828C37.3633 18.8828 36.748 18.5996 36.3574 18.0332C35.9668 17.4668 35.7715 16.8125 35.7715 16.0703C35.7715 15.582 35.7812 15.1719 35.8008 14.8398C35.8398 14.5078 35.918 14.0781 36.0352 13.5508C35.8203 13.3555 35.6348 13.1895 35.4785 13.0527C35.3223 12.8965 35.2441 12.6914 35.2441 12.4375C35.2441 12.2031 35.293 12.0469 35.3906 11.9688C35.5078 11.8906 35.6348 11.8418 35.7715 11.8223C35.9277 11.7832 36.0742 11.7441 36.2109 11.7051C36.3477 11.666 36.4453 11.5879 36.5039 11.4707C36.543 11.3535 36.6113 11.1387 36.709 10.8262C36.8262 10.5137 36.9434 10.1914 37.0605 9.85938C37.1777 9.50781 37.2852 9.18555 37.3828 8.89258C37.5 8.58008 37.5781 8.36523 37.6172 8.24805C37.7539 7.91602 37.9004 7.58398 38.0566 7.25195C38.2324 6.90039 38.4277 6.58789 38.6426 6.31445C38.877 6.04102 39.1406 5.81641 39.4336 5.64062C39.7461 5.46484 40.1074 5.37695 40.5176 5.37695C40.752 5.37695 41.0352 5.48438 41.3672 5.69922C41.7188 5.91406 42.0508 6.17773 42.3633 6.49023C42.6758 6.7832 42.9395 7.0957 43.1543 7.42773C43.3691 7.75977 43.4766 8.04297 43.4766 8.27734C43.4766 8.57031 43.4082 8.84375 43.2715 9.09766C43.1348 9.33203 42.959 9.55664 42.7441 9.77148C42.5488 9.9668 42.334 10.1523 42.0996 10.3281C41.8652 10.5039 41.6504 10.6699 41.4551 10.8262C41.4355 10.8262 41.3965 10.8457 41.3379 10.8848C41.2793 10.9238 41.2305 10.9531 41.1914 10.9727C41.1719 10.9922 41.123 11.041 41.0449 11.1191C40.9863 11.1777 40.918 11.2461 40.8398 11.3242C40.7617 11.4023 40.6836 11.4805 40.6055 11.5586C40.5469 11.6367 40.5078 11.6855 40.4883 11.7051C40.4297 11.7637 40.3125 11.8613 40.1367 11.998C39.9805 12.1152 39.8047 12.252 39.6094 12.4082C39.4141 12.5449 39.2285 12.6816 39.0527 12.8184C38.8965 12.9355 38.7891 13.0137 38.7305 13.0527L38.6133 13.2871C38.5742 13.3652 38.5352 13.541 38.4961 13.8145C38.4766 14.0684 38.4473 14.3613 38.4082 14.6934C38.3691 15.0254 38.3301 15.3672 38.291 15.7188C38.2715 16.0508 38.2617 16.3242 38.2617 16.5391C38.2617 16.5586 38.2715 16.5781 38.291 16.5977C38.3301 16.6367 38.3594 16.6562 38.3789 16.6562C38.5352 16.6562 38.6816 16.5879 38.8184 16.4512C38.9551 16.3145 39.1016 16.2168 39.2578 16.1582L43.9453 11.8223L45.1465 9.97656C45.2441 9.83984 45.4297 9.69336 45.7031 9.53711C45.9961 9.36133 46.2891 9.27344 46.582 9.27344C46.875 9.25391 47.1289 9.3418 47.3438 9.53711C47.5781 9.73242 47.6953 10.1133 47.6953 10.6797ZM41.25 8.39453C41.3477 8.31641 41.3867 8.19922 41.3672 8.04297C41.3477 7.88672 41.2891 7.75 41.1914 7.63281C41.1133 7.51562 41.0059 7.44727 40.8691 7.42773C40.7324 7.38867 40.6055 7.45703 40.4883 7.63281C40.4297 7.71094 40.3223 7.86719 40.166 8.10156C40.0293 8.33594 39.8828 8.58008 39.7266 8.83398C39.5898 9.06836 39.4727 9.27344 39.375 9.44922C39.2773 9.625 39.2578 9.69336 39.3164 9.6543L41.25 8.39453ZM60.7324 10.6797C60.6934 11.0312 60.6445 11.3047 60.5859 11.5C60.5469 11.6953 60.4688 11.8711 60.3516 12.0273C60.2344 12.1836 60.0684 12.3496 59.8535 12.5254C59.6387 12.6816 59.3457 12.916 58.9746 13.2285C58.6035 13.5215 58.1445 13.9121 57.5977 14.4004C57.0508 14.8887 56.3867 15.5234 55.6055 16.3047C55.293 16.5977 54.9707 16.9004 54.6387 17.2129C54.3066 17.5254 53.9551 17.8086 53.584 18.0625C53.2324 18.2969 52.8613 18.4922 52.4707 18.6484C52.0801 18.8047 51.6699 18.8828 51.2402 18.8828C50.4004 18.8828 49.7852 18.5996 49.3945 18.0332C49.0039 17.4668 48.8086 16.8125 48.8086 16.0703C48.8086 15.582 48.8184 15.1719 48.8379 14.8398C48.877 14.5078 48.9551 14.0781 49.0723 13.5508C48.8574 13.3555 48.6719 13.1895 48.5156 13.0527C48.3594 12.8965 48.2812 12.6914 48.2812 12.4375C48.2812 12.2031 48.3301 12.0469 48.4277 11.9688C48.5449 11.8906 48.6719 11.8418 48.8086 11.8223C48.9648 11.7832 49.1113 11.7441 49.248 11.7051C49.3848 11.666 49.4824 11.5879 49.541 11.4707C49.5801 11.3535 49.6484 11.1387 49.7461 10.8262C49.8633 10.5137 49.9805 10.1914 50.0977 9.85938C50.2148 9.50781 50.3223 9.18555 50.4199 8.89258C50.5371 8.58008 50.6152 8.36523 50.6543 8.24805C50.791 7.91602 50.9375 7.58398 51.0938 7.25195C51.2695 6.90039 51.4648 6.58789 51.6797 6.31445C51.9141 6.04102 52.1777 5.81641 52.4707 5.64062C52.7832 5.46484 53.1445 5.37695 53.5547 5.37695C53.7891 5.37695 54.0723 5.48438 54.4043 5.69922C54.7559 5.91406 55.0879 6.17773 55.4004 6.49023C55.7129 6.7832 55.9766 7.0957 56.1914 7.42773C56.4062 7.75977 56.5137 8.04297 56.5137 8.27734C56.5137 8.57031 56.4453 8.84375 56.3086 9.09766C56.1719 9.33203 55.9961 9.55664 55.7812 9.77148C55.5859 9.9668 55.3711 10.1523 55.1367 10.3281C54.9023 10.5039 54.6875 10.6699 54.4922 10.8262C54.4727 10.8262 54.4336 10.8457 54.375 10.8848C54.3164 10.9238 54.2676 10.9531 54.2285 10.9727C54.209 10.9922 54.1602 11.041 54.082 11.1191C54.0234 11.1777 53.9551 11.2461 53.877 11.3242C53.7988 11.4023 53.7207 11.4805 53.6426 11.5586C53.584 11.6367 53.5449 11.6855 53.5254 11.7051C53.4668 11.7637 53.3496 11.8613 53.1738 11.998C53.0176 12.1152 52.8418 12.252 52.6465 12.4082C52.4512 12.5449 52.2656 12.6816 52.0898 12.8184C51.9336 12.9355 51.8262 13.0137 51.7676 13.0527L51.6504 13.2871C51.6113 13.3652 51.5723 13.541 51.5332 13.8145C51.5137 14.0684 51.4844 14.3613 51.4453 14.6934C51.4062 15.0254 51.3672 15.3672 51.3281 15.7188C51.3086 16.0508 51.2988 16.3242 51.2988 16.5391C51.2988 16.5586 51.3086 16.5781 51.3281 16.5977C51.3672 16.6367 51.3965 16.6562 51.416 16.6562C51.5723 16.6562 51.7188 16.5879 51.8555 16.4512C51.9922 16.3145 52.1387 16.2168 52.2949 16.1582L56.9824 11.8223L58.1836 9.97656C58.2812 9.83984 58.4668 9.69336 58.7402 9.53711C59.0332 9.36133 59.3262 9.27344 59.6191 9.27344C59.9121 9.25391 60.166 9.3418 60.3809 9.53711C60.6152 9.73242 60.7324 10.1133 60.7324 10.6797ZM54.2871 8.39453C54.3848 8.31641 54.4238 8.19922 54.4043 8.04297C54.3848 7.88672 54.3262 7.75 54.2285 7.63281C54.1504 7.51562 54.043 7.44727 53.9062 7.42773C53.7695 7.38867 53.6426 7.45703 53.5254 7.63281C53.4668 7.71094 53.3594 7.86719 53.2031 8.10156C53.0664 8.33594 52.9199 8.58008 52.7637 8.83398C52.627 9.06836 52.5098 9.27344 52.4121 9.44922C52.3145 9.625 52.2949 9.69336 52.3535 9.6543L54.2871 8.39453ZM62.8418 17.7402C62.8027 17.0371 62.7344 16.0996 62.6367 14.9277C62.5586 13.7363 62.4609 12.5059 62.3438 11.2363C62.2461 9.9668 62.1387 8.76562 62.0215 7.63281C61.9043 6.5 61.8066 5.62109 61.7285 4.99609C61.7285 4.74219 61.8457 4.57617 62.0801 4.49805C62.3145 4.41992 62.5391 4.38086 62.7539 4.38086C63.0273 4.38086 63.3105 4.45898 63.6035 4.61523C63.916 4.77148 64.1113 4.98633 64.1895 5.25977C64.1895 5.33789 64.1992 5.48438 64.2188 5.69922C64.2383 5.89453 64.248 6.09961 64.248 6.31445C64.2676 6.5293 64.2871 6.74414 64.3066 6.95898C64.3262 7.1543 64.3359 7.29102 64.3359 7.36914C64.3359 7.48633 64.3359 7.57422 64.3359 7.63281C64.3359 7.69141 64.3359 7.75 64.3359 7.80859C64.3359 7.84766 64.3457 7.89648 64.3652 7.95508C64.3848 8.01367 64.4141 8.11133 64.4531 8.24805C64.4922 8.20898 64.5312 8.16016 64.5703 8.10156C64.6289 8.04297 64.668 8.00391 64.6875 7.98438C65 7.53516 65.3027 7.14453 65.5957 6.8125C65.8887 6.46094 66.1914 6.13867 66.5039 5.8457C66.8164 5.5332 67.1582 5.21094 67.5293 4.87891C67.9199 4.52734 68.3691 4.12695 68.877 3.67773C68.9941 3.58008 69.082 3.51172 69.1406 3.47266C69.1992 3.41406 69.248 3.375 69.2871 3.35547C69.3457 3.31641 69.4043 3.29688 69.4629 3.29688C69.5215 3.27734 69.5996 3.26758 69.6973 3.26758C70.0293 3.26758 70.3613 3.38477 70.6934 3.61914C71.0449 3.83398 71.2207 4.13672 71.2207 4.52734C71.2207 4.66406 71.1719 4.81055 71.0742 4.9668C70.9766 5.10352 70.8594 5.24023 70.7227 5.37695C70.5859 5.49414 70.4395 5.60156 70.2832 5.69922C70.1465 5.79688 70.0195 5.86523 69.9023 5.9043C69.3945 6.35352 68.8574 6.87109 68.291 7.45703C67.7246 8.02344 67.1973 8.63867 66.709 9.30273C66.2207 9.9668 65.8203 10.6602 65.5078 11.3828C65.1953 12.1055 65.0391 12.8281 65.0391 13.5508C65.0391 14.2148 65.0879 14.8691 65.1855 15.5137C65.2832 16.1582 65.332 16.8125 65.332 17.4766V18.502C65.1758 18.6582 65.0391 18.7852 64.9219 18.8828C64.8047 18.9805 64.6387 19.0293 64.4238 19.0293C64.0918 19.0293 63.7695 18.8926 63.457 18.6191C63.1445 18.3262 62.9395 18.0332 62.8418 17.7402ZM76.4062 17.8867C76.4062 17.7891 76.4062 17.7012 76.4062 17.623C76.4258 17.5449 76.4746 17.4668 76.5527 17.3887C76.7871 17.0957 77.0508 16.793 77.3438 16.4805C77.6367 16.1484 77.9199 15.8262 78.1934 15.5137C78.4668 15.1816 78.7207 14.8398 78.9551 14.4883C79.1895 14.1367 79.3848 13.7852 79.541 13.4336V13.2578L75.7031 14.0488H75.2637C74.9902 14.0488 74.6484 14.0293 74.2383 13.9902C73.8477 13.9512 73.457 13.873 73.0664 13.7559C72.6953 13.6191 72.373 13.4336 72.0996 13.1992C71.8457 12.9648 71.7188 12.6523 71.7188 12.2617C71.7383 11.8125 71.9727 11.3145 72.4219 10.7676C72.8711 10.2207 73.3984 9.68359 74.0039 9.15625C74.6094 8.62891 75.2148 8.14062 75.8203 7.69141C76.4453 7.24219 76.9434 6.89062 77.3145 6.63672C77.7246 6.40234 78.2129 6.2168 78.7793 6.08008C79.3457 5.92383 79.8633 5.8457 80.332 5.8457C80.7227 5.8457 81.0645 5.92383 81.3574 6.08008C81.6504 6.2168 81.7969 6.5 81.7969 6.92969C81.7969 7.10547 81.7773 7.27148 81.7383 7.42773C81.7188 7.58398 81.6016 7.69141 81.3867 7.75C80.7617 7.69141 80.1758 7.74023 79.6289 7.89648C79.082 8.0332 78.5645 8.24805 78.0762 8.54102C77.5879 8.83398 77.1289 9.18555 76.6992 9.5957C76.2695 9.98633 75.8496 10.3965 75.4395 10.8262C75.3223 10.9629 75.1758 11.1582 75 11.4121C74.8242 11.6465 74.7363 11.7832 74.7363 11.8223V11.8516C75.2441 11.8516 75.7422 11.8027 76.2305 11.7051C76.7383 11.6074 77.2363 11.5098 77.7246 11.4121C78.2324 11.2949 78.7305 11.1875 79.2188 11.0898C79.7266 10.9922 80.2441 10.9434 80.7715 10.9434C80.9668 10.9434 81.1816 10.9629 81.416 11.002C81.6504 11.0215 81.8652 11.0801 82.0605 11.1777C82.2754 11.2754 82.4414 11.4121 82.5586 11.5879C82.6953 11.7441 82.7637 11.9492 82.7637 12.2031C82.7637 12.5742 82.666 12.9355 82.4707 13.2871C82.2949 13.6191 82.0215 14.0293 81.6504 14.5176C81.2988 14.9863 80.8398 15.5625 80.2734 16.2461C79.7266 16.9297 79.0723 17.8086 78.3105 18.8828C78.2715 18.9414 78.1738 18.9805 78.0176 19C77.8809 19.0195 77.7637 19.0293 77.666 19.0293C77.3926 19.0293 77.1094 18.9121 76.8164 18.6777C76.543 18.4434 76.4062 18.1797 76.4062 17.8867Z" fill="#CCCCCC"/>
</svg>
