<svg width="47" height="13" viewBox="0 0 47 13" fill="none" xmlns="http://www.w3.org/2000/svg">
<path d="M2.69531 7.17188L7.14844 8.74219V10.9297L0.421875 8.07812V6.23438L7.14844 3.38281V5.57031L2.69531 7.17188ZM44.1328 7.14844L39.5938 5.5625V3.39062L46.3984 6.24219V8.07812L39.5938 10.9375V8.75781L44.1328 7.14844Z" fill="#CCCCCC"/>
<path d="M18.0859 8.21094C17.9974 9.4349 17.5443 10.3984 16.7266 11.1016C15.9141 11.8047 14.8411 12.1562 13.5078 12.1562C12.0495 12.1562 10.901 11.6667 10.0625 10.6875C9.22917 9.70312 8.8125 8.35417 8.8125 6.64062V5.94531C8.8125 4.85156 9.00521 3.88802 9.39062 3.05469C9.77604 2.22135 10.3255 1.58333 11.0391 1.14062C11.7578 0.692708 12.5911 0.46875 13.5391 0.46875C14.8516 0.46875 15.9089 0.820312 16.7109 1.52344C17.513 2.22656 17.9766 3.21354 18.1016 4.48438H15.7578C15.7005 3.75 15.4948 3.21875 15.1406 2.89062C14.7917 2.55729 14.2578 2.39062 13.5391 2.39062C12.7578 2.39062 12.1719 2.67188 11.7812 3.23438C11.3958 3.79167 11.1979 4.65885 11.1875 5.83594V6.69531C11.1875 7.92448 11.3724 8.82292 11.7422 9.39062C12.1172 9.95833 12.7057 10.2422 13.5078 10.2422C14.2318 10.2422 14.7708 10.0781 15.125 9.75C15.4844 9.41667 15.6901 8.90365 15.7422 8.21094H18.0859ZM26.4688 7.07031H21.9688V10.1172H27.25V12H19.625V0.625H27.2344V2.52344H21.9688V5.23438H26.4688V7.07031ZM37.9688 6.57031C37.9688 7.6901 37.7708 8.67188 37.375 9.51562C36.9792 10.3594 36.4115 11.0104 35.6719 11.4688C34.9375 11.9271 34.0938 12.1562 33.1406 12.1562C32.1979 12.1562 31.3568 11.9297 30.6172 11.4766C29.8776 11.0234 29.3047 10.3776 28.8984 9.53906C28.4922 8.69531 28.2865 7.72656 28.2812 6.63281V6.07031C28.2812 4.95052 28.4818 3.96615 28.8828 3.11719C29.2891 2.26302 29.8594 1.60938 30.5938 1.15625C31.3333 0.697917 32.1771 0.46875 33.125 0.46875C34.0729 0.46875 34.9141 0.697917 35.6484 1.15625C36.388 1.60938 36.9583 2.26302 37.3594 3.11719C37.7656 3.96615 37.9688 4.94792 37.9688 6.0625V6.57031ZM35.5938 6.05469C35.5938 4.86198 35.3802 3.95573 34.9531 3.33594C34.526 2.71615 33.9167 2.40625 33.125 2.40625C32.3385 2.40625 31.7318 2.71354 31.3047 3.32812C30.8776 3.9375 30.6615 4.83333 30.6562 6.01562V6.57031C30.6562 7.73177 30.8698 8.63281 31.2969 9.27344C31.724 9.91406 32.3385 10.2344 33.1406 10.2344C33.9271 10.2344 34.5312 9.92708 34.9531 9.3125C35.375 8.69271 35.5885 7.79167 35.5938 6.60938V6.05469Z" fill="#8855F1"/>
</svg>
