<svg width="26" height="26" viewBox="0 0 26 26" fill="none" xmlns="http://www.w3.org/2000/svg">
<path d="M24.4835 2.27499C24.3752 1.94999 24.0502 1.62499 23.7252 1.51666C19.1752 0.324994 14.5169 1.73333 11.3752 5.41666L10.1835 6.82499L7.25853 6.17499C5.85019 5.63333 4.33353 6.28333 3.68353 7.58333L1.3002 11.8083C1.08353 12.1333 1.08353 12.4583 1.3002 12.7833C1.40853 13.1083 1.73353 13.325 2.05853 13.4333L5.41686 14.1917C5.09186 15.0583 4.98353 15.925 4.76686 16.7917C4.76686 17.1167 4.87519 17.4417 5.09186 17.6583L8.45019 21.0167C8.66686 21.2333 8.88353 21.3417 9.20853 21.3417H9.31686C10.2919 21.2333 11.1585 21.125 12.0252 20.8L12.6752 24.05C12.7835 24.375 13.0002 24.7 13.3252 24.8083C13.4335 24.9167 13.6502 24.9167 13.7585 24.9167C13.9752 24.9167 14.0835 24.9167 14.3002 24.8083L18.5252 22.425C19.7169 21.775 20.3669 20.2583 20.0419 18.85L19.2835 15.8167L20.5835 14.625C24.1585 11.5917 25.6752 6.71666 24.4835 2.27499ZM7.90853 9.53333C7.25853 10.4 6.60853 11.2667 6.17519 12.1333L3.9002 11.5917L5.52519 8.66666C5.74186 8.23333 6.17519 8.12499 6.71686 8.23333L8.55853 8.66666L7.90853 9.53333ZM17.3335 20.475L14.4085 22.1L13.9752 19.9333C14.9502 19.5 15.8169 18.85 16.5752 18.2L17.3335 17.4417L17.7669 19.2833C17.9835 19.825 17.6585 20.3667 17.3335 20.475ZM18.0919 9.53333C17.2252 9.53333 16.4669 8.77499 16.4669 7.90833C16.4669 7.04166 17.2252 6.28333 18.0919 6.28333C18.9585 6.28333 19.7169 7.04166 19.7169 7.90833C19.7169 8.77499 19.0669 9.53333 18.0919 9.53333Z" fill="white"/>
</svg>
