<svg width="24" height="24" viewBox="0 0 24 24" fill="none" xmlns="http://www.w3.org/2000/svg">
<path d="M11.9997 23.6666C18.4327 23.6666 23.6663 18.433 23.6663 12C23.6663 5.56698 18.4327 0.333313 11.9997 0.333313C5.56667 0.333313 0.333008 5.56698 0.333008 12C0.333008 18.433 5.56667 23.6666 11.9997 23.6666ZM16.0748 8.49998C16.3075 8.49404 16.5389 8.53473 16.7555 8.61967C16.9722 8.7046 17.1696 8.83204 17.3362 8.99449C17.5028 9.15694 17.6352 9.35111 17.7255 9.56553C17.8159 9.77996 17.8624 10.0103 17.8623 10.243C17.8623 10.4757 17.8156 10.706 17.7251 10.9204C17.6346 11.1347 17.5021 11.3288 17.3354 11.4911C17.1687 11.6535 16.9711 11.7808 16.7544 11.8656C16.5378 11.9504 16.3063 11.9909 16.0737 11.9848C15.6194 11.9729 15.1877 11.784 14.8706 11.4584C14.5535 11.1328 14.3762 10.6963 14.3763 10.2418C14.3765 9.78736 14.5541 9.35093 14.8714 9.02555C15.1887 8.70017 15.6205 8.51158 16.0748 8.49998ZM11.057 16.5721C11.6793 16.697 12.3201 16.697 12.9423 16.5721C13.2375 16.5115 13.5315 16.4193 13.8173 16.3003C14.0903 16.1836 14.3587 16.039 14.6095 15.871C14.8522 15.7053 15.0843 15.514 15.299 15.3005C15.5125 15.0881 15.7038 14.856 15.8695 14.6098L17.8038 15.913C17.3009 16.6583 16.6597 17.3003 15.915 17.8041C15.1562 18.3162 14.3045 18.6745 13.4078 18.8588C12.4783 19.0455 11.5209 19.0451 10.5915 18.8576C9.69462 18.676 8.84279 18.3179 8.08551 17.8041C7.34076 17.2991 6.69895 16.6569 6.19434 15.9118L8.12867 14.6086C8.29551 14.8548 8.48684 15.087 8.69801 15.297C9.34215 15.9443 10.1626 16.3878 11.057 16.5721ZM7.91634 8.49998C8.14623 8.50006 8.37386 8.54541 8.58622 8.63346C8.79858 8.72151 8.99152 8.85052 9.15402 9.01313C9.31652 9.17574 9.44541 9.36876 9.53331 9.58118C9.62121 9.7936 9.66642 10.0213 9.66634 10.2511C9.66627 10.481 9.62091 10.7087 9.53286 10.921C9.44482 11.1334 9.31581 11.3263 9.1532 11.4888C8.99059 11.6513 8.79756 11.7802 8.58514 11.8681C8.37272 11.956 8.14506 12.0012 7.91517 12.0011C7.45089 12.001 7.00569 11.8164 6.6775 11.488C6.34931 11.1596 6.16502 10.7143 6.16517 10.25C6.16533 9.7857 6.34991 9.34049 6.67832 9.0123C7.00673 8.68411 7.45206 8.49983 7.91634 8.49998Z" fill="white"/>
</svg>
