<svg width="104" height="34" viewBox="0 0 104 34" fill="none" xmlns="http://www.w3.org/2000/svg">
<path d="M7.11914 12.9805L7.00195 12.8633C6.88477 13.332 6.81641 13.8008 6.79688 14.2695C6.77734 14.7383 6.75781 15.2168 6.73828 15.7051C6.73828 15.8613 6.72852 16.125 6.70898 16.4961C6.70898 16.8672 6.69922 17.2676 6.67969 17.6973C6.66016 18.1074 6.64062 18.5078 6.62109 18.8984C6.62109 19.2695 6.62109 19.5234 6.62109 19.6602C6.5625 19.8945 6.43555 20.0996 6.24023 20.2754C6.04492 20.4512 5.82031 20.5391 5.56641 20.5391C5.46875 20.5391 5.3418 20.5293 5.18555 20.5098C5.04883 20.4707 4.90234 20.4316 4.74609 20.3926C4.60938 20.334 4.47266 20.2656 4.33594 20.1875C4.21875 20.1094 4.15039 20.0215 4.13086 19.9238L2.28516 13.4492L0.9375 8.14648C0.917969 8.12695 0.878906 8.05859 0.820312 7.94141C0.761719 7.82422 0.703125 7.69727 0.644531 7.56055C0.585938 7.4043 0.527344 7.25781 0.46875 7.12109C0.429688 6.98438 0.410156 6.87695 0.410156 6.79883C0.410156 6.52539 0.537109 6.31055 0.791016 6.1543C1.06445 5.97852 1.30859 5.89062 1.52344 5.89062C2.24609 5.89062 2.70508 6.19336 2.90039 6.79883L4.51172 12.6289C4.60938 12.5898 4.66797 12.4824 4.6875 12.3066C4.72656 12.1309 4.74609 12.0234 4.74609 11.9844C4.74609 11.9648 4.75586 11.8672 4.77539 11.6914C4.81445 11.5156 4.87305 11.2129 4.95117 10.7832C5.0293 10.334 5.13672 9.72852 5.27344 8.9668C5.42969 8.20508 5.63477 7.22852 5.88867 6.03711C6.04492 5.8418 6.23047 5.71484 6.44531 5.65625C6.66016 5.57813 6.9043 5.53906 7.17773 5.53906C7.43164 5.53906 7.62695 5.57813 7.76367 5.65625C7.91992 5.73437 8.02734 5.91016 8.08594 6.18359L10.0781 14.5625C10.1172 14.6602 10.1562 14.7676 10.1953 14.8848C10.2344 15.002 10.2734 15.1094 10.3125 15.207C10.3906 14.5625 10.459 13.9961 10.5176 13.5078C10.5762 13 10.6348 12.5117 10.6934 12.043C10.752 11.5547 10.8105 11.0469 10.8691 10.5195C10.9277 9.97266 11.0059 9.34766 11.1035 8.64453C11.2012 7.94141 11.3184 7.11133 11.4551 6.1543C11.5918 5.19727 11.7578 4.05469 11.9531 2.72656C12.0117 2.33594 12.1777 2.0918 12.4512 1.99414C12.7441 1.89648 13.0664 1.84766 13.418 1.84766C13.4375 1.84766 13.4766 1.86719 13.5352 1.90625C13.6133 1.92578 13.6621 1.94531 13.6816 1.96484C13.7207 1.98437 13.7988 2.00391 13.916 2.02344C14.0332 2.04297 14.1113 2.0625 14.1504 2.08203C14.2285 2.25781 14.2969 2.41406 14.3555 2.55078C14.4141 2.66797 14.4434 2.80469 14.4434 2.96094C14.4043 2.76563 14.3359 2.85352 14.2383 3.22461C14.1406 3.5957 14.0137 4.20117 13.8574 5.04102C13.7207 5.88086 13.5645 6.92578 13.3887 8.17578C13.2324 9.40625 13.0762 10.8027 12.9199 12.3652C12.7637 13.9082 12.6172 15.5879 12.4805 17.4043C12.3633 19.2012 12.2656 21.0664 12.1875 23C12.1289 23 12.0312 22.9902 11.8945 22.9707C11.7578 22.9512 11.6113 22.9219 11.4551 22.8828C11.3184 22.8438 11.1914 22.7949 11.0742 22.7363C10.957 22.6777 10.8789 22.5996 10.8398 22.502L7.11914 12.9805ZM16.2598 8.67383C16.2988 7.50195 16.25 6.33008 16.1133 5.1582C15.9766 3.98633 15.9082 2.82422 15.9082 1.67188C15.9082 1.30078 16.0156 1.07617 16.2305 0.998047C16.4453 0.900391 16.6895 0.851562 16.9629 0.851562C17.3535 0.851562 17.6758 0.958984 17.9297 1.17383C18.1836 1.38867 18.3301 1.69141 18.3691 2.08203C18.5449 4.21094 18.6426 6.32031 18.6621 8.41016C18.7012 10.4805 18.8477 12.5801 19.1016 14.709C19.6875 13.5957 20.293 12.6777 20.918 11.9551C21.543 11.2324 22.1387 10.7539 22.7051 10.5195C23.291 10.2852 23.8184 10.334 24.2871 10.666C24.7754 10.9785 25.166 11.6133 25.459 12.5703C25.752 13.5078 25.9277 14.7969 25.9863 16.4375C26.0449 18.0586 25.9473 20.0801 25.6934 22.502C25.5566 22.502 25.3906 22.5117 25.1953 22.5312C25 22.5312 24.8047 22.5215 24.6094 22.502C24.4336 22.4824 24.2773 22.4434 24.1406 22.3848C24.0039 22.3262 23.9258 22.2188 23.9062 22.0625C24.0625 20.5977 24.1504 19.3672 24.1699 18.3711C24.1895 17.375 24.1602 16.5547 24.082 15.9102C24.0039 15.2656 23.8965 14.7773 23.7598 14.4453C23.623 14.0938 23.4766 13.8398 23.3203 13.6836C23.1641 13.5273 23.0078 13.4492 22.8516 13.4492C22.7148 13.4297 22.6074 13.4297 22.5293 13.4492C22.0996 13.6055 21.6895 13.9863 21.2988 14.5918C20.9277 15.1973 20.6055 15.9004 20.332 16.7012C20.0586 17.502 19.8535 18.3516 19.7168 19.25C19.5996 20.1289 19.5703 20.9199 19.6289 21.623C19.6094 21.7793 19.5898 21.9355 19.5703 22.0918C19.5508 22.248 19.5117 22.3945 19.4531 22.5312C19.4141 22.668 19.3359 22.7852 19.2188 22.8828C19.1211 22.9609 18.9648 23 18.75 23C18.3398 23 18.0078 22.9316 17.7539 22.7949C17.5195 22.6387 17.334 22.4434 17.1973 22.209C17.0801 21.9746 17.002 21.7012 16.9629 21.3887C16.9434 21.0762 16.9531 20.7539 16.9922 20.4219L16.2598 8.67383ZM33.0469 31.0566C33.0078 30.6465 32.9785 30.1484 32.959 29.5625C32.959 28.9766 32.959 28.3613 32.959 27.7168C32.959 27.0723 32.959 26.418 32.959 25.7539C32.9785 25.0898 33.0078 24.4844 33.0469 23.9375V22.8828C32.9492 22.7461 32.832 22.6094 32.6953 22.4727C32.5586 22.3164 32.3145 22.0234 31.9629 21.5938C31.6309 21.1445 31.1523 20.4902 30.5273 19.6309C29.9023 18.752 29.0625 17.5312 28.0078 15.9688C27.5977 15.5391 27.334 15.1875 27.2168 14.9141C27.0996 14.6211 27.0605 14.3867 27.0996 14.2109C27.1387 14.0352 27.2363 13.9082 27.3926 13.8301C27.5684 13.752 27.7344 13.7129 27.8906 13.7129C28.2812 13.7129 28.6328 13.8008 28.9453 13.9766C29.2578 14.1523 29.541 14.377 29.7949 14.6504C30.0488 14.9238 30.2734 15.2266 30.4688 15.5586C30.6836 15.8711 30.8887 16.1738 31.084 16.4668C31.2012 16.6426 31.3477 16.8672 31.5234 17.1406C31.6992 17.4141 31.875 17.6875 32.0508 17.9609C32.2266 18.2148 32.373 18.4395 32.4902 18.6348C32.627 18.8301 32.6953 18.9277 32.6953 18.9277L33.0469 19.3086V16.2324C33.0469 15.2559 33.0273 14.3086 32.9883 13.3906C32.9492 12.4531 32.9297 11.5059 32.9297 10.5488C32.9297 10.2754 33.0273 10.0508 33.2227 9.875C33.418 9.69922 33.6523 9.62109 33.9258 9.64062C34.2578 9.67969 34.502 9.73828 34.6582 9.81641C34.834 9.89453 35.0098 10.0508 35.1855 10.2852C35.3418 10.5 35.4102 10.7539 35.3906 11.0469C35.3906 11.3398 35.4004 11.623 35.4199 11.8965C35.498 13.752 35.5566 15.6074 35.5957 17.4629C35.6543 19.2988 35.6836 21.1445 35.6836 23C35.6641 23.1758 35.6543 23.5273 35.6543 24.0547C35.6543 24.6016 35.6543 25.2168 35.6543 25.9004C35.6738 26.584 35.6836 27.2969 35.6836 28.0391C35.7031 28.7812 35.7129 29.4551 35.7129 30.0605C35.7324 30.6855 35.7422 31.1934 35.7422 31.584C35.7617 31.9941 35.7812 32.1895 35.8008 32.1699C35.8008 32.4629 35.6934 32.6777 35.4785 32.8145C35.2832 32.9512 35.0391 33.0195 34.7461 33.0195C34.3555 33.0195 34.0625 32.9609 33.8672 32.8438C33.6914 32.7461 33.5547 32.5996 33.457 32.4043C33.3594 32.2285 33.291 32.0234 33.252 31.7891C33.2129 31.5547 33.1445 31.3105 33.0469 31.0566ZM49.2188 18.5176C49.4531 16.5645 49.6387 15.0605 49.7754 14.0059C49.9121 12.9512 50.0098 12.1699 50.0684 11.6621C50.1465 11.0762 50.1855 10.7344 50.1855 10.6367C50.3613 10.0312 50.5469 9.37695 50.7422 8.67383C50.9375 7.9707 51.1914 7.31641 51.5039 6.71094C51.8359 6.10547 52.2559 5.59766 52.7637 5.1875C53.2715 4.77734 53.9258 4.57227 54.7266 4.57227C55.0781 4.57227 55.3906 4.60156 55.6641 4.66016C55.957 4.69922 56.2305 4.77734 56.4844 4.89453C56.7383 5.01172 56.9824 5.1582 57.2168 5.33398C57.4707 5.49023 57.7344 5.68555 58.0078 5.91992C58.2031 6.0957 58.3105 6.20312 58.3301 6.24219C58.3691 6.28125 58.3887 6.39844 58.3887 6.59375C58.3887 6.84766 58.3008 7.0918 58.125 7.32617C57.9492 7.56055 57.6953 7.67773 57.3633 7.67773C57.0898 7.67773 56.8652 7.61914 56.6895 7.50195C56.5137 7.36523 56.3379 7.21875 56.1621 7.0625C56.0059 6.88672 55.8301 6.74023 55.6348 6.62305C55.459 6.48633 55.2246 6.41797 54.9316 6.41797C54.6191 6.41797 54.3457 6.50586 54.1113 6.68164C53.877 6.83789 53.6719 7.04297 53.4961 7.29688C53.3398 7.55078 53.2129 7.83398 53.1152 8.14648C53.0371 8.45898 52.9785 8.75195 52.9395 9.02539L51.5625 18.4004C51.5625 18.4395 51.5527 18.5371 51.5332 18.6934C51.5332 18.8301 51.5332 18.9375 51.5332 19.0156C51.5332 19.1523 51.5332 19.3281 51.5332 19.543C51.5332 19.7383 51.5527 19.9434 51.5918 20.1582C51.6309 20.3535 51.6992 20.5293 51.7969 20.6855C51.8945 20.8223 52.041 20.8906 52.2363 20.8906C52.3535 20.8906 52.4609 20.8516 52.5586 20.7734C53.4961 20.1484 54.2969 19.4258 54.9609 18.6055C55.6445 17.7656 56.2891 16.877 56.8945 15.9395C56.9141 15.9004 56.9629 15.8125 57.041 15.6758C57.1387 15.5195 57.2266 15.3633 57.3047 15.207C57.4023 15.0312 57.4902 14.8652 57.5684 14.709C57.6465 14.5332 57.7051 14.4062 57.7441 14.3281C57.8613 14.0742 57.9492 13.8105 58.0078 13.5371C58.0664 13.2637 58.1348 13.0098 58.2129 12.7754C58.3105 12.541 58.4473 12.3555 58.623 12.2188C58.7988 12.0625 59.0723 11.9844 59.4434 11.9844C59.7168 11.9844 59.9805 12.1016 60.2344 12.3359C60.4883 12.5703 60.6152 12.8438 60.6152 13.1562V13.2148C60.127 14.6211 59.4922 15.9199 58.7109 17.1113C57.9492 18.3027 57.0996 19.4844 56.1621 20.6562C55.5762 21.3594 54.9023 21.9258 54.1406 22.3555C53.3789 22.7852 52.5293 23 51.5918 23H51.4453C50.5664 22.668 49.9707 22.1797 49.6582 21.5352C49.3652 20.8711 49.2188 20.0996 49.2188 19.2207V18.5176ZM61.9336 18.5176L63.0176 10.9883C63.0566 10.7344 63.1641 10.5488 63.3398 10.4316C63.5352 10.3145 63.75 10.2559 63.9844 10.2559C64.4141 10.2559 64.7559 10.3828 65.0098 10.6367C65.2637 10.8711 65.4785 11.1641 65.6543 11.5156H65.6836C65.918 11.5156 66.123 11.4766 66.2988 11.3984C66.4941 11.3008 66.7285 11.252 67.002 11.252C67.627 11.252 68.1543 11.4473 68.584 11.8379C69.0332 12.2285 69.3945 12.707 69.668 13.2734C69.9414 13.8203 70.1367 14.416 70.2539 15.0605C70.3906 15.7051 70.459 16.2715 70.459 16.7598C70.459 17.3457 70.3027 18 69.9902 18.7227C69.6973 19.4453 69.2969 20.1289 68.7891 20.7734C68.3008 21.418 67.7441 21.9551 67.1191 22.3848C66.4941 22.8145 65.8594 23.0293 65.2148 23.0293C64.6289 23.0293 64.1211 22.8926 63.6914 22.6191C63.2812 22.3457 62.9395 22.0039 62.666 21.5938C62.4121 21.1641 62.2266 20.6855 62.1094 20.1582C61.9922 19.6309 61.9336 19.1133 61.9336 18.6055V18.5176ZM64.3945 18.6934C64.4336 18.8887 64.4727 19.1133 64.5117 19.3672C64.5508 19.6211 64.6094 19.8555 64.6875 20.0703C64.7656 20.2656 64.873 20.4219 65.0098 20.5391C65.166 20.6367 65.3809 20.6367 65.6543 20.5391C65.9082 20.3047 66.1816 20.041 66.4746 19.748C66.7676 19.4551 67.041 19.1426 67.2949 18.8105C67.5684 18.4785 67.793 18.127 67.9688 17.7559C68.1445 17.3848 68.2324 16.9941 68.2324 16.584C68.3105 15.9199 68.2617 15.3145 68.0859 14.7676C67.9102 14.2012 67.6562 13.8008 67.3242 13.5664C67.0117 13.3125 66.6504 13.2832 66.2402 13.4785C65.8301 13.6543 65.4199 14.1523 65.0098 14.9727C64.7754 15.4805 64.6094 16.0762 64.5117 16.7598C64.4336 17.4238 64.3945 18.0391 64.3945 18.6055V18.6934ZM79.1016 18.3711C79.082 18.3711 78.9453 18.5859 78.6914 19.0156C78.457 19.4453 78.1348 19.9141 77.7246 20.4219C77.3145 20.9297 76.8262 21.3984 76.2598 21.8281C75.7129 22.2578 75.127 22.4727 74.502 22.4727C73.6426 22.4727 72.9199 22.209 72.334 21.6816C71.7676 21.1543 71.4844 20.4316 71.4844 19.5137C71.4453 19.0449 71.5039 18.4883 71.6602 17.8438C71.8359 17.1992 72.0801 16.5352 72.3926 15.8516C72.7246 15.1484 73.1152 14.4746 73.5645 13.8301C74.0332 13.166 74.5312 12.5996 75.0586 12.1309C75.5859 11.6426 76.1328 11.2812 76.6992 11.0469C77.2852 10.8125 77.8711 10.7734 78.457 10.9297V10.5195C78.457 10.0117 78.4375 9.49414 78.3984 8.9668C78.3789 8.41992 78.3496 7.80469 78.3105 7.12109C78.291 6.41797 78.2617 5.61719 78.2227 4.71875C78.2031 3.80078 78.1934 2.70703 78.1934 1.4375C78.252 1.22266 78.3496 1.08594 78.4863 1.02734C78.6426 0.949219 78.8086 0.910156 78.9844 0.910156C79.4336 0.910156 79.7852 1.05664 80.0391 1.34961C80.3125 1.64258 80.4785 2.00391 80.5371 2.43359C80.498 3.09766 80.4785 3.78125 80.4785 4.48438C80.498 5.16797 80.5371 5.94922 80.5957 6.82812C80.6543 7.70703 80.7422 8.70312 80.8594 9.81641C80.9961 10.9297 81.1621 12.248 81.3574 13.7715C81.5527 15.2754 81.7871 17.0137 82.0605 18.9863C82.334 20.9395 82.6562 23.2051 83.0273 25.7832V26.7793C83.0273 26.8965 82.9785 26.9844 82.8809 27.043C82.8027 27.1016 82.6953 27.1406 82.5586 27.1602C82.4414 27.1992 82.3145 27.2188 82.1777 27.2188C82.0605 27.2383 81.9727 27.248 81.9141 27.248C81.6211 27.248 81.3086 27.1602 80.9766 26.9844C80.6445 26.8281 80.4492 26.6035 80.3906 26.3105L79.3066 18.4883C79.3066 18.4297 79.2773 18.4004 79.2188 18.4004C79.1797 18.3809 79.1406 18.3711 79.1016 18.3711ZM73.9453 19.0156C73.9453 19.0742 73.9355 19.1816 73.916 19.3379C73.916 19.4746 73.916 19.6211 73.916 19.7773C73.9355 19.9336 73.9648 20.0703 74.0039 20.1875C74.043 20.3047 74.1211 20.3633 74.2383 20.3633C74.7266 20.3828 75.2246 20.1973 75.7324 19.8066C76.2598 19.416 76.7383 18.9375 77.168 18.3711C77.5977 17.7852 77.9492 17.1602 78.2227 16.4961C78.5156 15.832 78.6719 15.2363 78.6914 14.709C78.7305 14.1816 78.6035 13.7812 78.3105 13.5078C78.0371 13.2148 77.5586 13.1465 76.875 13.3027C76.0352 14.0449 75.332 14.8945 74.7656 15.8516C74.2188 16.8086 73.9453 17.8633 73.9453 19.0156ZM89.6777 31.0566C89.6387 30.6465 89.6094 30.1484 89.5898 29.5625C89.5898 28.9766 89.5898 28.3613 89.5898 27.7168C89.5898 27.0723 89.5898 26.418 89.5898 25.7539C89.6094 25.0898 89.6387 24.4844 89.6777 23.9375V22.8828C89.5801 22.7461 89.4629 22.6094 89.3262 22.4727C89.1895 22.3164 88.9453 22.0234 88.5938 21.5938C88.2617 21.1445 87.7832 20.4902 87.1582 19.6309C86.5332 18.752 85.6934 17.5312 84.6387 15.9688C84.2285 15.5391 83.9648 15.1875 83.8477 14.9141C83.7305 14.6211 83.6914 14.3867 83.7305 14.2109C83.7695 14.0352 83.8672 13.9082 84.0234 13.8301C84.1992 13.752 84.3652 13.7129 84.5215 13.7129C84.9121 13.7129 85.2637 13.8008 85.5762 13.9766C85.8887 14.1523 86.1719 14.377 86.4258 14.6504C86.6797 14.9238 86.9043 15.2266 87.0996 15.5586C87.3145 15.8711 87.5195 16.1738 87.7148 16.4668C87.832 16.6426 87.9785 16.8672 88.1543 17.1406C88.3301 17.4141 88.5059 17.6875 88.6816 17.9609C88.8574 18.2148 89.0039 18.4395 89.1211 18.6348C89.2578 18.8301 89.3262 18.9277 89.3262 18.9277L89.6777 19.3086V16.2324C89.6777 15.2559 89.6582 14.3086 89.6191 13.3906C89.5801 12.4531 89.5605 11.5059 89.5605 10.5488C89.5605 10.2754 89.6582 10.0508 89.8535 9.875C90.0488 9.69922 90.2832 9.62109 90.5566 9.64062C90.8887 9.67969 91.1328 9.73828 91.2891 9.81641C91.4648 9.89453 91.6406 10.0508 91.8164 10.2852C91.9727 10.5 92.041 10.7539 92.0215 11.0469C92.0215 11.3398 92.0312 11.623 92.0508 11.8965C92.1289 13.752 92.1875 15.6074 92.2266 17.4629C92.2852 19.2988 92.3145 21.1445 92.3145 23C92.2949 23.1758 92.2852 23.5273 92.2852 24.0547C92.2852 24.6016 92.2852 25.2168 92.2852 25.9004C92.3047 26.584 92.3145 27.2969 92.3145 28.0391C92.334 28.7812 92.3438 29.4551 92.3438 30.0605C92.3633 30.6855 92.373 31.1934 92.373 31.584C92.3926 31.9941 92.4121 32.1895 92.4316 32.1699C92.4316 32.4629 92.3242 32.6777 92.1094 32.8145C91.9141 32.9512 91.6699 33.0195 91.377 33.0195C90.9863 33.0195 90.6934 32.9609 90.498 32.8438C90.3223 32.7461 90.1855 32.5996 90.0879 32.4043C89.9902 32.2285 89.9219 32.0234 89.8828 31.7891C89.8438 31.5547 89.7754 31.3105 89.6777 31.0566ZM98.1738 21.7109C98.1738 21.4375 98.291 21.1738 98.5254 20.9199C98.7598 20.666 99.0332 20.5391 99.3457 20.5391C99.7168 20.5391 100.078 20.6465 100.43 20.8613C100.781 21.0566 100.957 21.3789 100.957 21.8281C100.957 22.2383 100.83 22.5215 100.576 22.6777C100.322 22.8145 100.029 22.8828 99.6973 22.8828C99.3262 22.8828 98.9746 22.7949 98.6426 22.6191C98.3301 22.4238 98.1738 22.1211 98.1738 21.7109ZM96.2109 14.709C96.3281 14.1816 96.5137 13.6934 96.7676 13.2441C97.0215 12.7754 97.2949 12.3359 97.5879 11.9258C97.9004 11.4961 98.2227 11.0762 98.5547 10.666C98.8867 10.2559 99.1895 9.82617 99.4629 9.37695C99.502 9.31836 99.5703 9.20117 99.668 9.02539C99.7852 8.83008 99.9023 8.625 100.02 8.41016C100.137 8.17578 100.244 7.95117 100.342 7.73633C100.459 7.52148 100.537 7.36523 100.576 7.26758C100.674 7.05273 100.713 6.91602 100.693 6.85742C100.674 6.79883 100.664 6.67187 100.664 6.47656C99.8828 6.47656 99.1699 6.63281 98.5254 6.94531C97.9004 7.23828 97.2656 7.59961 96.6211 8.0293C96.3281 8.22461 96.0645 8.43945 95.8301 8.67383C95.5957 8.9082 95.293 9.02539 94.9219 9.02539C94.6289 9.02539 94.3164 8.91797 93.9844 8.70312C93.6523 8.46875 93.4863 8.17578 93.4863 7.82422C93.4863 7.70703 93.4961 7.63867 93.5156 7.61914C93.5547 7.58008 93.6328 7.52148 93.75 7.44336C94.3164 6.99414 94.873 6.58398 95.4199 6.21289C95.9668 5.82227 96.5234 5.49023 97.0898 5.2168C97.6758 4.92383 98.2812 4.69922 98.9062 4.54297C99.5508 4.36719 100.244 4.2793 100.986 4.2793C101.611 4.2793 102.148 4.42578 102.598 4.71875C103.066 5.01172 103.301 5.5 103.301 6.18359C103.301 6.63281 103.223 7.0918 103.066 7.56055C102.91 8.0293 102.715 8.48828 102.48 8.9375C102.246 9.38672 101.982 9.81641 101.689 10.2266C101.416 10.6367 101.162 11.0176 100.928 11.3691C100.771 11.6035 100.566 11.8672 100.312 12.1602C100.059 12.4531 99.8145 12.7656 99.5801 13.0977C99.3457 13.4102 99.1406 13.7324 98.9648 14.0645C98.7891 14.377 98.7012 14.6602 98.7012 14.9141C98.7012 15.0703 98.7695 15.1875 98.9062 15.2656C99.043 15.3438 99.1113 15.4609 99.1113 15.6172C99.1113 15.9688 99.0039 16.2227 98.7891 16.3789C98.5742 16.5156 98.3105 16.584 97.998 16.584C97.4902 16.584 97.0605 16.4082 96.709 16.0566C96.377 15.6855 96.2109 15.2559 96.2109 14.7676V14.709Z" fill="#CCCCCC"/>
</svg>
