<svg width="189" height="34" viewBox="0 0 189 34" fill="none" xmlns="http://www.w3.org/2000/svg">
<path d="M71.1562 0.00292986C67.8711 0.003403 64.6599 0.983927 61.9287 2.82051C59.1975 4.6571 57.0689 7.26727 55.812 10.321C54.5552 13.3747 54.2266 16.7347 54.8678 19.9763C55.509 23.2179 57.0911 26.1954 59.4142 28.5323C61.7373 30.8693 64.697 32.4607 67.919 33.1053C71.141 33.7499 74.4806 33.4188 77.5156 32.1539C80.5506 30.889 83.1447 28.747 84.9697 25.9988C86.7948 23.2506 87.7689 20.0197 87.7689 16.7146C87.7689 14.5198 87.3392 12.3465 86.5043 10.3188C85.6694 8.29104 84.4456 6.44866 82.903 4.89681C81.3603 3.34496 79.529 2.11404 77.5134 1.27434C75.4979 0.434642 73.3377 0.00261566 71.1562 0.00292986ZM71.1562 25.3724C69.4543 25.3722 67.7907 24.8642 66.3757 23.9127C64.9607 22.9613 63.8579 21.609 63.2068 20.027C62.5557 18.4449 62.3854 16.7042 62.7176 15.0248C63.0498 13.3454 63.8694 11.8028 65.073 10.5921C66.2765 9.38142 67.8098 8.55696 69.479 8.22299C71.1483 7.88902 72.8785 8.06055 74.4508 8.71587C76.0232 9.3712 77.3671 10.4809 78.3126 11.9047C79.2581 13.3284 79.7627 15.0023 79.7627 16.7146C79.7624 19.0109 78.8555 21.213 77.2415 22.8367C75.6275 24.4603 73.4386 25.3724 71.1562 25.3724Z" fill="#0F0E5E"/>
<path d="M9.31035 8.98254L0 14.3904V19.0399L9.31035 24.4454V19.7959L4.00305 16.717L9.31035 13.6308V8.98254Z" fill="#8754F0"/>
<path d="M40.5811 21.0328C39.6357 22.6852 38.1746 23.9773 36.4245 24.7086C34.6745 25.4399 32.7334 25.5695 30.9026 25.0772C29.0719 24.5849 27.4539 23.4983 26.2998 21.9861C25.1457 20.4739 24.5201 18.6206 24.5201 16.7141C24.5201 14.8075 25.1457 12.9543 26.2998 11.442C27.4539 9.92983 29.0719 8.84324 30.9026 8.35096C32.7334 7.85868 34.6745 7.98824 36.4245 8.71954C38.1746 9.45084 39.6357 10.743 40.5811 12.3953H49.1758C48.1342 8.47744 45.7123 5.07424 42.3614 2.81995C39.0104 0.565657 34.9592 -0.385923 30.9625 0.142549C26.9659 0.67102 23.2966 2.64349 20.6385 5.69236C17.9803 8.74122 16.5146 12.6585 16.5146 16.7141C16.5146 20.7697 17.9803 24.6869 20.6385 27.7358C23.2966 30.7847 26.9659 32.7571 30.9625 33.2856C34.9592 33.8141 39.0104 32.8625 42.3614 30.6082C45.7123 28.3539 48.1342 24.9507 49.1758 21.0328H40.5811Z" fill="#0F0E5E"/>
<path d="M108.185 0.830759V0.816406H93.1382V32.595H107.605C107.797 32.595 107.989 32.6093 108.185 32.6093C110.161 32.6103 112.117 32.2196 113.943 31.4598C115.769 30.6999 117.428 29.5856 118.826 28.1807C120.223 26.7757 121.332 25.1074 122.089 23.2712C122.846 21.435 123.236 19.4668 123.237 17.479V15.9682C123.237 13.9798 122.848 12.0108 122.091 10.1738C121.335 8.33679 120.226 6.66772 118.828 5.26196C117.43 3.85621 115.771 2.74132 113.945 1.98099C112.119 1.22067 110.161 0.829816 108.185 0.830759ZM114.894 17.1106C114.893 19.1471 114.089 21.0999 112.657 22.5396C111.226 23.9793 109.284 24.7879 107.26 24.7876H101.657V8.65847H107.26C109.285 8.65879 111.226 9.46809 112.658 10.9084C114.089 12.3487 114.894 14.3021 114.894 16.3391V17.1106Z" fill="#0F0E5E"/>
<path d="M147.992 0.816406L140.978 12.3343L133.963 0.816406H124.164L136.942 21.1237V32.6129H145.015V21.1237L157.791 0.816406H147.992Z" fill="#0F0E5E"/>
<path d="M179.683 8.98254V13.6296L184.988 16.7158L179.683 19.7947V24.4442L188.993 19.0387V14.3904L179.683 8.98254Z" fill="#8754F0"/>
<path d="M162.533 27.5912L176.247 5.83777H171.505L157.791 27.5912H162.533Z" fill="#35B9CF"/>
</svg>
