<svg width="22" height="23" viewBox="0 0 22 23" fill="none" xmlns="http://www.w3.org/2000/svg">
<path d="M6.4199 14.54C6.23365 14.7274 6.12911 14.9808 6.12911 15.245C6.12911 15.5092 6.23365 15.7626 6.4199 15.95C6.51286 16.0437 6.62346 16.1181 6.74532 16.1689C6.86718 16.2197 6.99789 16.2458 7.1299 16.2458C7.26191 16.2458 7.39262 16.2197 7.51448 16.1689C7.63633 16.1181 7.74694 16.0437 7.8399 15.95C8.02615 15.7626 8.13069 15.5092 8.13069 15.245C8.13069 14.9808 8.02615 14.7274 7.8399 14.54C7.74694 14.4463 7.63633 14.3719 7.51448 14.3211C7.39262 14.2703 7.26191 14.2442 7.1299 14.2442C6.99789 14.2442 6.86718 14.2703 6.74532 14.3211C6.62346 14.3719 6.51286 14.4463 6.4199 14.54ZM6.4199 6.05C6.23365 6.23736 6.12911 6.49082 6.12911 6.755C6.12911 7.01919 6.23365 7.27264 6.4199 7.46C6.51286 7.55373 6.62346 7.62812 6.74532 7.67889C6.86718 7.72966 6.99789 7.7558 7.1299 7.7558C7.26191 7.7558 7.39262 7.72966 7.51448 7.67889C7.63633 7.62812 7.74694 7.55373 7.8399 7.46C8.02615 7.27264 8.13069 7.01919 8.13069 6.755C8.13069 6.49082 8.02615 6.23736 7.8399 6.05C7.74694 5.95627 7.63633 5.88188 7.51448 5.83111C7.39262 5.78034 7.26191 5.7542 7.1299 5.7542C6.99789 5.7542 6.86718 5.78034 6.74532 5.83111C6.62346 5.88188 6.51286 5.95627 6.4199 6.05ZM11.3699 16.05C11.1721 16.05 10.9788 16.1087 10.8143 16.2185C10.6499 16.3284 10.5217 16.4846 10.446 16.6673C10.3703 16.85 10.3505 17.0511 10.3891 17.2451C10.4277 17.4391 10.5229 17.6173 10.6628 17.7571C10.8026 17.897 10.9808 17.9922 11.1748 18.0308C11.3688 18.0694 11.5699 18.0496 11.7526 17.9739C11.9353 17.8982 12.0915 17.77 12.2014 17.6056C12.3112 17.4411 12.3699 17.2478 12.3699 17.05C12.3767 16.9145 12.3558 16.7791 12.3086 16.6519C12.2614 16.5248 12.1888 16.4086 12.0953 16.3103C12.0017 16.2121 11.8892 16.134 11.7645 16.0806C11.6398 16.0273 11.5055 15.9998 11.3699 16V16.05ZM5.3699 10.05C5.17212 10.05 4.97878 10.1087 4.81433 10.2185C4.64988 10.3284 4.52171 10.4846 4.44602 10.6673C4.37033 10.85 4.35053 11.0511 4.38911 11.2451C4.4277 11.4391 4.52294 11.6173 4.66279 11.7571C4.80264 11.897 4.98083 11.9922 5.17481 12.0308C5.36879 12.0694 5.56986 12.0496 5.75258 11.9739C5.93531 11.8982 6.09149 11.77 6.20137 11.6056C6.31125 11.4411 6.3699 11.2478 6.3699 11.05C6.37668 10.9145 6.35583 10.7791 6.30862 10.6519C6.26141 10.5248 6.18883 10.4086 6.09529 10.3103C6.00174 10.2121 5.8892 10.134 5.76449 10.0806C5.63979 10.0273 5.50554 9.99983 5.3699 10V10.05ZM11.3699 4.05C11.1721 4.05 10.9788 4.10865 10.8143 4.21853C10.6499 4.32841 10.5217 4.48459 10.446 4.66732C10.3703 4.85004 10.3505 5.05111 10.3891 5.24509C10.4277 5.43907 10.5229 5.61726 10.6628 5.75711C10.8026 5.89696 10.9808 5.9922 11.1748 6.03079C11.3688 6.06937 11.5699 6.04957 11.7526 5.97388C11.9353 5.89819 12.0915 5.77002 12.2014 5.60557C12.3112 5.44112 12.3699 5.24778 12.3699 5.05C12.3767 4.91453 12.3558 4.7791 12.3086 4.65195C12.2614 4.52479 12.1888 4.40857 12.0953 4.31035C12.0017 4.21213 11.8892 4.13396 11.7645 4.08061C11.6398 4.02726 11.5055 3.99983 11.3699 4V4.05ZM14.9099 6.1C14.7695 6.23962 14.6736 6.41779 14.6346 6.61193C14.5955 6.80607 14.6149 7.00745 14.6905 7.19052C14.766 7.37359 14.8941 7.53012 15.0587 7.64026C15.2233 7.75041 15.4169 7.80921 15.6149 7.80921C15.8129 7.80921 16.0065 7.75041 16.1711 7.64026C16.3357 7.53012 16.4638 7.37359 16.5393 7.19052C16.6149 7.00745 16.6343 6.80607 16.5952 6.61193C16.5562 6.41779 16.4603 6.23962 16.3199 6.1C16.1392 5.90696 15.8895 5.79332 15.6252 5.78395C15.361 5.77458 15.1038 5.87024 14.9099 6.05V6.1ZM21.2099 6.1C20.2956 4.2723 18.8903 2.73542 17.1515 1.6617C15.4127 0.587984 13.4091 0.0198837 11.3655 0.0211049C9.32189 0.0223261 7.31902 0.592821 5.58148 1.66862C3.84395 2.74441 2.44045 4.28297 1.52838 6.11176C0.616305 7.94056 0.231718 9.98727 0.417743 12.0224C0.603768 14.0575 1.35305 16.0006 2.58157 17.6337C3.81008 19.2669 5.46926 20.5255 7.37304 21.2684C9.27682 22.0114 11.3499 22.2093 13.3599 21.84C13.8653 21.7449 14.3468 21.55 14.776 21.2667C15.2053 20.9834 15.5737 20.6174 15.8599 20.19C16.1682 19.7254 16.381 19.204 16.4857 18.6564C16.5905 18.1087 16.5851 17.5456 16.4699 17C16.4069 16.6703 16.3735 16.3356 16.3699 16C16.3743 15.031 16.6602 14.0841 17.1928 13.2745C17.7254 12.465 18.4817 11.8276 19.3699 11.44C19.8488 11.2256 20.2786 10.9153 20.6329 10.5283C20.9872 10.1414 21.2585 9.68588 21.4299 9.19C21.6033 8.68329 21.6732 8.14691 21.6354 7.61268C21.5976 7.07846 21.4529 6.55726 21.2099 6.08V6.1ZM19.5099 8.54C19.4246 8.77932 19.2921 8.99909 19.1203 9.18631C18.9486 9.37354 18.741 9.52441 18.5099 9.63C17.2799 10.1806 16.2349 11.0745 15.5006 12.2045C14.7662 13.3345 14.3736 14.6524 14.3699 16C14.3714 16.4701 14.4183 16.9389 14.5099 17.4C14.571 17.6818 14.575 17.973 14.5218 18.2564C14.4685 18.5397 14.3591 18.8096 14.1999 19.05C14.0652 19.2604 13.888 19.4403 13.6796 19.5781C13.4712 19.7158 13.2362 19.8085 12.9899 19.85C12.4558 19.9504 11.9134 20.0006 11.3699 20C10.1641 20.0006 8.97041 19.7588 7.85982 19.2891C6.74923 18.8194 5.74435 18.1314 4.90486 17.2658C4.06537 16.4001 3.40838 15.3747 2.97291 14.2502C2.53745 13.1257 2.33238 11.9252 2.3699 10.72C2.44751 8.47279 3.3589 6.33495 4.92653 4.72296C6.49415 3.11097 8.60573 2.14028 10.8499 2H11.3599C13.0357 2.00042 14.678 2.46869 16.102 3.35207C17.526 4.23545 18.6751 5.49885 19.4199 7C19.6491 7.47498 19.6815 8.02129 19.5099 8.52V8.54ZM11.3699 10C11.1721 10 10.9788 10.0587 10.8143 10.1685C10.6499 10.2784 10.5217 10.4346 10.446 10.6173C10.3703 10.8 10.3505 11.0011 10.3891 11.1951C10.4277 11.3891 10.5229 11.5673 10.6628 11.7071C10.8026 11.847 10.9808 11.9422 11.1748 11.9808C11.3688 12.0194 11.5699 11.9996 11.7526 11.9239C11.9353 11.8482 12.0915 11.72 12.2014 11.5556C12.3112 11.3911 12.3699 11.1978 12.3699 11C12.3699 10.7348 12.2645 10.4804 12.077 10.2929C11.8895 10.1054 11.6351 10 11.3699 10Z" fill="#8E98AE"/>
</svg>
