<svg width="23" height="23" viewBox="0 0 23 23" fill="none" xmlns="http://www.w3.org/2000/svg">
<path d="M9.25 12.625C9.0275 12.625 8.80999 12.691 8.62498 12.8146C8.43998 12.9382 8.29578 13.1139 8.21064 13.3195C8.12549 13.525 8.10321 13.7512 8.14662 13.9695C8.19002 14.1877 8.29717 14.3882 8.4545 14.5455C8.61184 14.7028 8.81229 14.81 9.03052 14.8534C9.24875 14.8968 9.47495 14.8745 9.68052 14.7894C9.88609 14.7042 10.0618 14.56 10.1854 14.375C10.309 14.19 10.375 13.9725 10.375 13.75C10.375 13.4516 10.2565 13.1655 10.0455 12.9545C9.83452 12.7435 9.54837 12.625 9.25 12.625ZM9.25 8.125C9.0275 8.125 8.80999 8.19098 8.62498 8.3146C8.43998 8.43821 8.29578 8.61391 8.21064 8.81948C8.12549 9.02505 8.10321 9.25125 8.14662 9.46948C8.19002 9.68771 8.29717 9.88816 8.4545 10.0455C8.61184 10.2028 8.81229 10.31 9.03052 10.3534C9.24875 10.3968 9.47495 10.3745 9.68052 10.2894C9.88609 10.2042 10.0618 10.06 10.1854 9.87502C10.309 9.69001 10.375 9.4725 10.375 9.25C10.375 8.95163 10.2565 8.66548 10.0455 8.4545C9.83452 8.24353 9.54837 8.125 9.25 8.125ZM13.75 8.125C13.5275 8.125 13.31 8.19098 13.125 8.3146C12.94 8.43821 12.7958 8.61391 12.7106 8.81948C12.6255 9.02505 12.6032 9.25125 12.6466 9.46948C12.69 9.68771 12.7972 9.88816 12.9545 10.0455C13.1118 10.2028 13.3123 10.31 13.5305 10.3534C13.7488 10.3968 13.975 10.3745 14.1805 10.2894C14.3861 10.2042 14.5618 10.06 14.6854 9.87502C14.809 9.69001 14.875 9.4725 14.875 9.25C14.875 8.95163 14.7565 8.66548 14.5455 8.4545C14.3345 8.24353 14.0484 8.125 13.75 8.125ZM21.625 12.625C21.9234 12.625 22.2095 12.5065 22.4205 12.2955C22.6315 12.0845 22.75 11.7984 22.75 11.5C22.75 11.2016 22.6315 10.9155 22.4205 10.7045C22.2095 10.4935 21.9234 10.375 21.625 10.375H19.375V8.125H21.625C21.9234 8.125 22.2095 8.00647 22.4205 7.7955C22.6315 7.58452 22.75 7.29837 22.75 7C22.75 6.70163 22.6315 6.41548 22.4205 6.2045C22.2095 5.99353 21.9234 5.875 21.625 5.875H19.1725C19.0045 5.40318 18.7336 4.97466 18.3795 4.62051C18.0253 4.26637 17.5968 3.99548 17.125 3.8275V1.375C17.125 1.07663 17.0065 0.790483 16.7955 0.579505C16.5845 0.368526 16.2984 0.25 16 0.25C15.7016 0.25 15.4155 0.368526 15.2045 0.579505C14.9935 0.790483 14.875 1.07663 14.875 1.375V3.625H12.625V1.375C12.625 1.07663 12.5065 0.790483 12.2955 0.579505C12.0845 0.368526 11.7984 0.25 11.5 0.25C11.2016 0.25 10.9155 0.368526 10.7045 0.579505C10.4935 0.790483 10.375 1.07663 10.375 1.375V3.625H8.125V1.375C8.125 1.07663 8.00647 0.790483 7.7955 0.579505C7.58452 0.368526 7.29837 0.25 7 0.25C6.70163 0.25 6.41548 0.368526 6.2045 0.579505C5.99353 0.790483 5.875 1.07663 5.875 1.375V3.8275C5.40318 3.99548 4.97466 4.26637 4.62051 4.62051C4.26637 4.97466 3.99548 5.40318 3.8275 5.875H1.375C1.07663 5.875 0.790483 5.99353 0.579505 6.2045C0.368526 6.41548 0.25 6.70163 0.25 7C0.25 7.29837 0.368526 7.58452 0.579505 7.7955C0.790483 8.00647 1.07663 8.125 1.375 8.125H3.625V10.375H1.375C1.07663 10.375 0.790483 10.4935 0.579505 10.7045C0.368526 10.9155 0.25 11.2016 0.25 11.5C0.25 11.7984 0.368526 12.0845 0.579505 12.2955C0.790483 12.5065 1.07663 12.625 1.375 12.625H3.625V14.875H1.375C1.07663 14.875 0.790483 14.9935 0.579505 15.2045C0.368526 15.4155 0.25 15.7016 0.25 16C0.25 16.2984 0.368526 16.5845 0.579505 16.7955C0.790483 17.0065 1.07663 17.125 1.375 17.125H3.8275C3.99548 17.5968 4.26637 18.0253 4.62051 18.3795C4.97466 18.7336 5.40318 19.0045 5.875 19.1725V21.625C5.875 21.9234 5.99353 22.2095 6.2045 22.4205C6.41548 22.6315 6.70163 22.75 7 22.75C7.29837 22.75 7.58452 22.6315 7.7955 22.4205C8.00647 22.2095 8.125 21.9234 8.125 21.625V19.375H10.375V21.625C10.375 21.9234 10.4935 22.2095 10.7045 22.4205C10.9155 22.6315 11.2016 22.75 11.5 22.75C11.7984 22.75 12.0845 22.6315 12.2955 22.4205C12.5065 22.2095 12.625 21.9234 12.625 21.625V19.375H14.875V21.625C14.875 21.9234 14.9935 22.2095 15.2045 22.4205C15.4155 22.6315 15.7016 22.75 16 22.75C16.2984 22.75 16.5845 22.6315 16.7955 22.4205C17.0065 22.2095 17.125 21.9234 17.125 21.625V19.1725C17.5968 19.0045 18.0253 18.7336 18.3795 18.3795C18.7336 18.0253 19.0045 17.5968 19.1725 17.125H21.625C21.9234 17.125 22.2095 17.0065 22.4205 16.7955C22.6315 16.5845 22.75 16.2984 22.75 16C22.75 15.7016 22.6315 15.4155 22.4205 15.2045C22.2095 14.9935 21.9234 14.875 21.625 14.875H19.375V12.625H21.625ZM17.125 16C17.125 16.2984 17.0065 16.5845 16.7955 16.7955C16.5845 17.0065 16.2984 17.125 16 17.125H7C6.70163 17.125 6.41548 17.0065 6.2045 16.7955C5.99353 16.5845 5.875 16.2984 5.875 16V7C5.875 6.70163 5.99353 6.41548 6.2045 6.2045C6.41548 5.99353 6.70163 5.875 7 5.875H16C16.2984 5.875 16.5845 5.99353 16.7955 6.2045C17.0065 6.41548 17.125 6.70163 17.125 7V16ZM13.75 12.625C13.5275 12.625 13.31 12.691 13.125 12.8146C12.94 12.9382 12.7958 13.1139 12.7106 13.3195C12.6255 13.525 12.6032 13.7512 12.6466 13.9695C12.69 14.1877 12.7972 14.3882 12.9545 14.5455C13.1118 14.7028 13.3123 14.81 13.5305 14.8534C13.7488 14.8968 13.975 14.8745 14.1805 14.7894C14.3861 14.7042 14.5618 14.56 14.6854 14.375C14.809 14.19 14.875 13.9725 14.875 13.75C14.875 13.4516 14.7565 13.1655 14.5455 12.9545C14.3345 12.7435 14.0484 12.625 13.75 12.625Z" fill="#8E98AE"/>
</svg>
