<svg width="51" height="13" viewBox="0 0 51 13" fill="none" xmlns="http://www.w3.org/2000/svg">
<path d="M8.32 11.584V9.6L3.6 7.616L8.32 5.648V3.616L0.896 6.88V8.4L8.32 11.584ZM43.5541 11.584L50.9781 8.4V6.88L43.5541 3.616V5.648L48.2741 7.616L43.5541 9.6V11.584Z" fill="#CCCCCC"/>
<path d="M15.7944 12.112C17.7944 12.112 19.3304 11.184 20.3064 9.968L18.6584 8.544C17.9704 9.392 16.9784 9.984 15.7944 9.984C13.7624 9.984 12.3544 8.464 12.3544 6.352C12.3544 4.08 13.8264 2.64 15.7624 2.64C16.9304 2.64 17.8904 3.184 18.6264 4.08L20.2904 2.688C19.0744 1.2 17.3944 0.495999 15.7624 0.495999C12.0824 0.495999 10.0024 3.104 10.0024 6.352C10.0024 10.096 12.6264 12.112 15.7944 12.112ZM24.3333 12H26.6053V2.64H29.7573V0.639999H21.2293V2.64H24.3333V12ZM36.0288 12.144C39.3568 12.144 41.8048 9.776 41.8048 6.32C41.8048 2.848 39.3568 0.495999 36.0288 0.495999C32.5888 0.495999 30.2368 2.944 30.2368 6.32C30.2368 9.696 32.5888 12.144 36.0288 12.144ZM36.0288 10.032C33.9808 10.032 32.5728 8.384 32.5728 6.32C32.5728 4.256 33.9808 2.608 36.0288 2.608C37.9808 2.608 39.4528 4.176 39.4528 6.32C39.4528 8.464 37.9808 10.032 36.0288 10.032Z" fill="#8855F1"/>
</svg>
