<svg width="28" height="22" viewBox="0 0 28 22" fill="none" xmlns="http://www.w3.org/2000/svg">
<path d="M16.8333 6.91792C16.8333 5.74431 17.7847 4.79292 18.9583 4.79292C20.1319 4.79292 21.0833 5.74431 21.0833 6.91792C21.0833 8.09152 20.1319 9.04292 18.9583 9.04292C17.7847 9.04292 16.8333 8.09152 16.8333 6.91792Z" fill="white"/>
<path fill-rule="evenodd" clip-rule="evenodd" d="M7.29566 0.767534C11.7568 0.379735 16.2432 0.379735 20.7043 0.767534L22.8438 0.953516C24.891 1.13147 26.5495 2.6893 26.855 4.72136C27.4977 8.99504 27.4977 13.3408 26.855 17.6145C26.5495 19.6465 24.891 21.2043 22.8438 21.3823L20.7043 21.5683C16.2432 21.9561 11.7568 21.9561 7.29566 21.5683L5.15616 21.3823C3.10898 21.2043 1.45053 19.6465 1.14496 17.6145C0.502299 13.3408 0.502299 8.99504 1.14496 4.72136C1.45053 2.6893 3.10898 1.13147 5.15616 0.953516L7.29566 0.767534ZM20.5203 2.88455C16.1816 2.5074 11.8184 2.5074 7.47968 2.88455L5.34019 3.07053C4.27155 3.16343 3.40584 3.97662 3.24633 5.03735C2.88149 7.46356 2.73445 9.91419 2.8052 12.3601L8.29034 6.87495C8.49726 6.66803 8.78036 6.55561 9.07285 6.56421C9.36535 6.57281 9.64136 6.70165 9.83577 6.92037L15.037 12.7717L18.6223 11.5766C19.0233 11.443 19.4653 11.5597 19.7481 11.8738L24.7335 17.4132C24.7411 17.3753 24.7479 17.337 24.7537 17.2985C25.3648 13.2343 25.3648 9.10155 24.7537 5.03735C24.5942 3.97662 23.7284 3.16343 22.6598 3.07053L20.5203 2.88455ZM23.3785 19.0842L18.6341 13.8126L15.0443 15.0092C14.6411 15.1436 14.1966 15.0248 13.9142 14.7071L8.99615 9.17435L2.98426 15.1862C3.05337 15.8919 3.14073 16.5962 3.24633 17.2985C3.40584 18.3592 4.27155 19.1724 5.34019 19.2653L7.47968 19.4513C11.8184 19.8284 16.1816 19.8284 20.5203 19.4513L22.6598 19.2653C22.913 19.2433 23.1548 19.1808 23.3785 19.0842Z" fill="white"/>
</svg>
