<svg width="97" height="24" viewBox="0 0 97 24" fill="none" xmlns="http://www.w3.org/2000/svg">
<path d="M5.06836 21.9453C5.38086 21.5156 5.72266 21.1934 6.09375 20.9785C6.48438 20.7637 6.875 20.5879 7.26562 20.4512C7.67578 20.3145 8.07617 20.1875 8.4668 20.0703C8.87695 19.9336 9.27734 19.7188 9.66797 19.4258C9.88281 19.3086 10.1855 19.1328 10.5762 18.8984C10.9668 18.6641 11.3477 18.4102 11.7188 18.1367C12.1094 17.8438 12.4414 17.5605 12.7148 17.2871C13.0078 17.0137 13.1543 16.7793 13.1543 16.584C13.1543 16.5645 13.1445 16.5547 13.125 16.5547C13.0859 16.5547 13.0664 16.5449 13.0664 16.5254L13.0078 16.4668C12.9102 16.4277 12.7539 16.3789 12.5391 16.3203C12.3242 16.2617 12.1973 16.2227 12.1582 16.2031C9.63867 15.9102 7.60742 15.6562 6.06445 15.4414C4.54102 15.207 3.35938 14.9629 2.51953 14.709C1.69922 14.4551 1.15234 14.1621 0.878906 13.8301C0.605469 13.498 0.46875 13.0781 0.46875 12.5703C0.46875 12.375 0.507812 12.1602 0.585938 11.9258C0.664062 11.6914 0.751953 11.457 0.849609 11.2227C0.966797 10.9883 1.08398 10.7734 1.20117 10.5781C1.31836 10.3828 1.42578 10.2266 1.52344 10.1094C1.83594 9.71875 2.24609 9.36719 2.75391 9.05469C3.26172 8.74219 3.80859 8.46875 4.39453 8.23438C4.98047 8 5.56641 7.79492 6.15234 7.61914C6.75781 7.44336 7.30469 7.28711 7.79297 7.15039C8.33984 7.11133 8.88672 6.98438 9.43359 6.76953C10 6.53516 10.5566 6.37891 11.1035 6.30078C11.377 6.30078 11.6016 6.4082 11.7773 6.62305C11.9531 6.83789 12.041 7.0625 12.041 7.29688C12.041 7.62891 11.9727 7.88281 11.8359 8.05859C11.7188 8.21484 11.5527 8.3418 11.3379 8.43945C11.1426 8.51758 10.918 8.58594 10.6641 8.64453C10.4102 8.68359 10.1562 8.73242 9.90234 8.79102C9.74609 8.83008 9.53125 8.88867 9.25781 8.9668C8.98438 9.02539 8.71094 9.09375 8.4375 9.17188C8.16406 9.25 7.91992 9.31836 7.70508 9.37695C7.49023 9.43555 7.36328 9.47461 7.32422 9.49414C6.71875 9.74805 6.14258 9.99219 5.5957 10.2266C5.06836 10.4414 4.59961 10.666 4.18945 10.9004C3.79883 11.1348 3.48633 11.3887 3.25195 11.6621C3.03711 11.916 2.93945 12.1992 2.95898 12.5117V12.541C3.1543 12.8145 3.59375 13.0195 4.27734 13.1562C4.96094 13.293 5.76172 13.4102 6.67969 13.5078C7.61719 13.6055 8.59375 13.7031 9.60938 13.8008C10.6445 13.8984 11.5918 14.0449 12.4512 14.2402C13.3105 14.4355 14.0234 14.6992 14.5898 15.0312C15.1563 15.3633 15.4492 15.8125 15.4688 16.3789C15.4688 16.5938 15.4199 16.8477 15.3223 17.1406C15.2441 17.4336 15.127 17.6582 14.9707 17.8145C14.4824 18.3613 13.8965 18.9277 13.2129 19.5137C12.5488 20.0996 11.8262 20.6465 11.0449 21.1543C10.2637 21.6426 9.45312 22.0625 8.61328 22.4141C7.79297 22.7461 6.98242 22.9414 6.18164 23C5.9082 23 5.6543 22.9023 5.41992 22.707C5.18555 22.4922 5.06836 22.2383 5.06836 21.9453ZM29.0039 14.6797C28.9648 15.0312 28.916 15.3047 28.8574 15.5C28.8184 15.6953 28.7402 15.8711 28.623 16.0273C28.5059 16.1836 28.3398 16.3496 28.125 16.5254C27.9102 16.6816 27.6172 16.916 27.2461 17.2285C26.875 17.5215 26.416 17.9121 25.8691 18.4004C25.3223 18.8887 24.6582 19.5234 23.877 20.3047C23.5645 20.5977 23.2422 20.9004 22.9102 21.2129C22.5781 21.5254 22.2266 21.8086 21.8555 22.0625C21.5039 22.2969 21.1328 22.4922 20.7422 22.6484C20.3516 22.8047 19.9414 22.8828 19.5117 22.8828C18.6719 22.8828 18.0566 22.5996 17.666 22.0332C17.2754 21.4668 17.0801 20.8125 17.0801 20.0703C17.0801 19.582 17.0898 19.1719 17.1094 18.8398C17.1484 18.5078 17.2266 18.0781 17.3438 17.5508C17.1289 17.3555 16.9434 17.1895 16.7871 17.0527C16.6309 16.8965 16.5527 16.6914 16.5527 16.4375C16.5527 16.2031 16.6016 16.0469 16.6992 15.9688C16.8164 15.8906 16.9434 15.8418 17.0801 15.8223C17.2363 15.7832 17.3828 15.7441 17.5195 15.7051C17.6562 15.666 17.7539 15.5879 17.8125 15.4707C17.8516 15.3535 17.9199 15.1387 18.0176 14.8262C18.1348 14.5137 18.252 14.1914 18.3691 13.8594C18.4863 13.5078 18.5938 13.1855 18.6914 12.8926C18.8086 12.5801 18.8867 12.3652 18.9258 12.248C19.0625 11.916 19.209 11.584 19.3652 11.252C19.541 10.9004 19.7363 10.5879 19.9512 10.3145C20.1855 10.041 20.4492 9.81641 20.7422 9.64062C21.0547 9.46484 21.416 9.37695 21.8262 9.37695C22.0605 9.37695 22.3438 9.48438 22.6758 9.69922C23.0273 9.91406 23.3594 10.1777 23.6719 10.4902C23.9844 10.7832 24.248 11.0957 24.4629 11.4277C24.6777 11.7598 24.7852 12.043 24.7852 12.2773C24.7852 12.5703 24.7168 12.8438 24.5801 13.0977C24.4434 13.332 24.2676 13.5566 24.0527 13.7715C23.8574 13.9668 23.6426 14.1523 23.4082 14.3281C23.1738 14.5039 22.959 14.6699 22.7637 14.8262C22.7441 14.8262 22.7051 14.8457 22.6465 14.8848C22.5879 14.9238 22.5391 14.9531 22.5 14.9727C22.4805 14.9922 22.4316 15.041 22.3535 15.1191C22.2949 15.1777 22.2266 15.2461 22.1484 15.3242C22.0703 15.4023 21.9922 15.4805 21.9141 15.5586C21.8555 15.6367 21.8164 15.6855 21.7969 15.7051C21.7383 15.7637 21.6211 15.8613 21.4453 15.998C21.2891 16.1152 21.1133 16.252 20.918 16.4082C20.7227 16.5449 20.5371 16.6816 20.3613 16.8184C20.2051 16.9355 20.0977 17.0137 20.0391 17.0527L19.9219 17.2871C19.8828 17.3652 19.8438 17.541 19.8047 17.8145C19.7852 18.0684 19.7559 18.3613 19.7168 18.6934C19.6777 19.0254 19.6387 19.3672 19.5996 19.7188C19.5801 20.0508 19.5703 20.3242 19.5703 20.5391C19.5703 20.5586 19.5801 20.5781 19.5996 20.5977C19.6387 20.6367 19.668 20.6562 19.6875 20.6562C19.8438 20.6562 19.9902 20.5879 20.127 20.4512C20.2637 20.3145 20.4102 20.2168 20.5664 20.1582L25.2539 15.8223L26.4551 13.9766C26.5527 13.8398 26.7383 13.6934 27.0117 13.5371C27.3047 13.3613 27.5977 13.2734 27.8906 13.2734C28.1836 13.2539 28.4375 13.3418 28.6523 13.5371C28.8867 13.7324 29.0039 14.1133 29.0039 14.6797ZM22.5586 12.3945C22.6562 12.3164 22.6953 12.1992 22.6758 12.043C22.6562 11.8867 22.5977 11.75 22.5 11.6328C22.4219 11.5156 22.3145 11.4473 22.1777 11.4277C22.041 11.3887 21.9141 11.457 21.7969 11.6328C21.7383 11.7109 21.6309 11.8672 21.4746 12.1016C21.3379 12.3359 21.1914 12.5801 21.0352 12.834C20.8984 13.0684 20.7812 13.2734 20.6836 13.4492C20.5859 13.625 20.5664 13.6934 20.625 13.6543L22.5586 12.3945ZM30.0293 20.9492C30.0293 20.1289 30.0488 19.3281 30.0879 18.5469C30.127 17.7656 30.1465 16.9648 30.1465 16.1445C30.0879 13.918 30.0684 11.7402 30.0879 9.61133C30.1074 7.46289 30.0098 5.26562 29.7949 3.01953C29.7949 2.64844 29.8828 2.4043 30.0586 2.28711C30.2344 2.15039 30.498 2.08203 30.8496 2.08203C31.2988 2.08203 31.6797 2.21875 31.9922 2.49219C32.3242 2.74609 32.5 3.10742 32.5195 3.57617C32.4805 6.34961 32.5098 9.10352 32.6074 11.8379C32.7246 14.5527 32.7832 17.3066 32.7832 20.0996V22.3555C32.666 22.5117 32.5 22.668 32.2852 22.8242C32.0703 22.9805 31.8555 23.0391 31.6406 23C31.0742 22.9023 30.6641 22.6777 30.4102 22.3262C30.1562 21.9551 30.0293 21.4961 30.0293 20.9492ZM46.5234 14.6797C46.4844 15.0312 46.4355 15.3047 46.377 15.5C46.3379 15.6953 46.2598 15.8711 46.1426 16.0273C46.0254 16.1836 45.8594 16.3496 45.6445 16.5254C45.4297 16.6816 45.1367 16.916 44.7656 17.2285C44.3945 17.5215 43.9355 17.9121 43.3887 18.4004C42.8418 18.8887 42.1777 19.5234 41.3965 20.3047C41.084 20.5977 40.7617 20.9004 40.4297 21.2129C40.0977 21.5254 39.7461 21.8086 39.375 22.0625C39.0234 22.2969 38.6523 22.4922 38.2617 22.6484C37.8711 22.8047 37.4609 22.8828 37.0312 22.8828C36.1914 22.8828 35.5762 22.5996 35.1855 22.0332C34.7949 21.4668 34.5996 20.8125 34.5996 20.0703C34.5996 19.582 34.6094 19.1719 34.6289 18.8398C34.668 18.5078 34.7461 18.0781 34.8633 17.5508C34.6484 17.3555 34.4629 17.1895 34.3066 17.0527C34.1504 16.8965 34.0723 16.6914 34.0723 16.4375C34.0723 16.2031 34.1211 16.0469 34.2188 15.9688C34.3359 15.8906 34.4629 15.8418 34.5996 15.8223C34.7559 15.7832 34.9023 15.7441 35.0391 15.7051C35.1758 15.666 35.2734 15.5879 35.332 15.4707C35.3711 15.3535 35.4395 15.1387 35.5371 14.8262C35.6543 14.5137 35.7715 14.1914 35.8887 13.8594C36.0059 13.5078 36.1133 13.1855 36.2109 12.8926C36.3281 12.5801 36.4062 12.3652 36.4453 12.248C36.582 11.916 36.7285 11.584 36.8848 11.252C37.0605 10.9004 37.2559 10.5879 37.4707 10.3145C37.7051 10.041 37.9688 9.81641 38.2617 9.64062C38.5742 9.46484 38.9355 9.37695 39.3457 9.37695C39.5801 9.37695 39.8633 9.48438 40.1953 9.69922C40.5469 9.91406 40.8789 10.1777 41.1914 10.4902C41.5039 10.7832 41.7676 11.0957 41.9824 11.4277C42.1973 11.7598 42.3047 12.043 42.3047 12.2773C42.3047 12.5703 42.2363 12.8438 42.0996 13.0977C41.9629 13.332 41.7871 13.5566 41.5723 13.7715C41.377 13.9668 41.1621 14.1523 40.9277 14.3281C40.6934 14.5039 40.4785 14.6699 40.2832 14.8262C40.2637 14.8262 40.2246 14.8457 40.166 14.8848C40.1074 14.9238 40.0586 14.9531 40.0195 14.9727C40 14.9922 39.9512 15.041 39.873 15.1191C39.8145 15.1777 39.7461 15.2461 39.668 15.3242C39.5898 15.4023 39.5117 15.4805 39.4336 15.5586C39.375 15.6367 39.3359 15.6855 39.3164 15.7051C39.2578 15.7637 39.1406 15.8613 38.9648 15.998C38.8086 16.1152 38.6328 16.252 38.4375 16.4082C38.2422 16.5449 38.0566 16.6816 37.8809 16.8184C37.7246 16.9355 37.6172 17.0137 37.5586 17.0527L37.4414 17.2871C37.4023 17.3652 37.3633 17.541 37.3242 17.8145C37.3047 18.0684 37.2754 18.3613 37.2363 18.6934C37.1973 19.0254 37.1582 19.3672 37.1191 19.7188C37.0996 20.0508 37.0898 20.3242 37.0898 20.5391C37.0898 20.5586 37.0996 20.5781 37.1191 20.5977C37.1582 20.6367 37.1875 20.6562 37.207 20.6562C37.3633 20.6562 37.5098 20.5879 37.6465 20.4512C37.7832 20.3145 37.9297 20.2168 38.0859 20.1582L42.7734 15.8223L43.9746 13.9766C44.0723 13.8398 44.2578 13.6934 44.5312 13.5371C44.8242 13.3613 45.1172 13.2734 45.4102 13.2734C45.7031 13.2539 45.957 13.3418 46.1719 13.5371C46.4062 13.7324 46.5234 14.1133 46.5234 14.6797ZM40.0781 12.3945C40.1758 12.3164 40.2148 12.1992 40.1953 12.043C40.1758 11.8867 40.1172 11.75 40.0195 11.6328C39.9414 11.5156 39.834 11.4473 39.6973 11.4277C39.5605 11.3887 39.4336 11.457 39.3164 11.6328C39.2578 11.7109 39.1504 11.8672 38.9941 12.1016C38.8574 12.3359 38.7109 12.5801 38.5547 12.834C38.418 13.0684 38.3008 13.2734 38.2031 13.4492C38.1055 13.625 38.0859 13.6934 38.1445 13.6543L40.0781 12.3945ZM47.3145 19.4844C47.1777 18.8984 47.1777 18.2051 47.3145 17.4043C47.4707 16.6035 47.7051 15.8027 48.0176 15.002C48.3496 14.1816 48.75 13.4102 49.2188 12.6875C49.707 11.9648 50.2148 11.3887 50.7422 10.959C51.2891 10.5293 51.8359 10.2949 52.3828 10.2559C52.9492 10.1973 53.4863 10.4414 53.9941 10.9883C53.9941 11.0078 54.0039 11.0566 54.0234 11.1348C54.043 11.2129 54.0625 11.3789 54.082 11.6328C54.1016 11.8672 54.1113 12.209 54.1113 12.6582C54.1309 13.0879 54.1406 13.6836 54.1406 14.4453C54.1602 14.4844 54.1797 14.5527 54.1992 14.6504C54.2383 14.7285 54.2578 14.7871 54.2578 14.8262C54.1992 15.041 54.082 15.2461 53.9062 15.4414C53.75 15.6172 53.5449 15.7051 53.291 15.7051C52.959 15.7051 52.6855 15.6562 52.4707 15.5586C52.2754 15.4414 52.1289 15.1777 52.0312 14.7676C52.0703 14.709 52.0801 14.5918 52.0605 14.416C52.041 14.2207 52.002 14.0059 51.9434 13.7715C51.9043 13.5371 51.8652 13.3027 51.8262 13.0684C51.7871 12.834 51.7676 12.6484 51.7676 12.5117C51.748 12.5117 51.7188 12.5312 51.6797 12.5703C51.6602 12.5898 51.6406 12.6094 51.6211 12.6289C51.2891 13.2148 50.9766 13.8691 50.6836 14.5918C50.4102 15.2949 50.1953 16.0176 50.0391 16.7598C49.9023 17.4824 49.8535 18.2051 49.8926 18.9277C49.9512 19.6504 50.166 20.3047 50.5371 20.8906C50.8105 20.8906 51.0645 20.7832 51.2988 20.5684C51.5332 20.334 51.7285 20.1191 51.8848 19.9238C52.2168 19.5332 52.5391 19.1328 52.8516 18.7227C53.1836 18.3125 53.4863 17.8828 53.7598 17.4336C53.877 17.2383 53.9648 17.0625 54.0234 16.9062C54.082 16.75 54.1504 16.623 54.2285 16.5254C54.3262 16.4277 54.4434 16.3496 54.5801 16.291C54.7168 16.2324 54.9219 16.2031 55.1953 16.2031C55.5078 16.2031 55.8008 16.2812 56.0742 16.4375C56.3477 16.5742 56.4844 16.8086 56.4844 17.1406C56.4844 17.5898 56.2793 18.1562 55.8691 18.8398C55.4785 19.5039 54.9902 20.1484 54.4043 20.7734C53.8379 21.3984 53.2324 21.9355 52.5879 22.3848C51.9434 22.8145 51.377 23.0293 50.8887 23.0293C50.4199 23.0293 49.9609 22.9414 49.5117 22.7656C49.082 22.5703 48.7012 22.3164 48.3691 22.0039C48.0566 21.6914 47.8027 21.3203 47.6074 20.8906C47.4121 20.4609 47.3145 19.9922 47.3145 19.4844ZM60.498 14.4453C60.2246 14.4453 59.9805 14.5137 59.7656 14.6504C59.5508 14.7871 59.2969 14.8555 59.0039 14.8555C58.9648 14.8555 58.8574 14.8555 58.6816 14.8555C58.5254 14.8359 58.4277 14.8262 58.3887 14.8262C58.3105 14.7285 58.2227 14.6504 58.125 14.5918C58.0273 14.5332 57.9297 14.4746 57.832 14.416C57.7344 14.3379 57.6465 14.25 57.5684 14.1523C57.5098 14.0547 57.4805 13.918 57.4805 13.7422C57.4805 13.4492 57.5977 13.2148 57.832 13.0391C58.0664 12.8438 58.3398 12.6777 58.6523 12.541C58.9648 12.4043 59.2773 12.2773 59.5898 12.1602C59.9219 12.043 60.1855 11.9062 60.3809 11.75V10.4609C60.3809 9.01562 60.3125 7.57031 60.1758 6.125C60.0391 4.66016 59.9707 3.21484 59.9707 1.78906C59.9707 1.39844 60.0684 1.14453 60.2637 1.02734C60.459 0.910156 60.7227 0.851562 61.0547 0.851562C61.4453 0.851562 61.7285 0.96875 61.9043 1.20312C62.0996 1.41797 62.2363 1.69141 62.3145 2.02344C62.3926 2.33594 62.4316 2.67773 62.4316 3.04883C62.4316 3.40039 62.4414 3.70313 62.4609 3.95703C62.4609 4.21094 62.4805 4.66016 62.5195 5.30469C62.5586 5.94922 62.5977 6.63281 62.6367 7.35547C62.6758 8.07812 62.7148 8.76172 62.7539 9.40625C62.793 10.0508 62.8223 10.5 62.8418 10.7539C62.9199 10.7344 63.0664 10.6855 63.2812 10.6074C63.5156 10.5098 63.7598 10.4219 64.0137 10.3438C64.2676 10.2461 64.502 10.1582 64.7168 10.0801C64.9512 10.002 65.1172 9.94336 65.2148 9.9043C65.7227 9.68945 66.25 9.45508 66.7969 9.20117C67.3438 8.92773 67.9004 8.79102 68.4668 8.79102C68.8574 8.79102 69.1504 8.92773 69.3457 9.20117C69.5605 9.45508 69.668 9.75781 69.668 10.1094C69.668 10.3633 69.5703 10.5488 69.375 10.666C69.1797 10.7832 68.9746 10.8906 68.7598 10.9883L63.4277 12.9805C63.3691 13.0195 63.3105 13.0586 63.252 13.0977C63.1934 13.1172 63.1348 13.1562 63.0762 13.2148V14.1523C63.0762 14.8359 63.0859 15.5488 63.1055 16.291C63.1445 17.0137 63.2129 17.7168 63.3105 18.4004C63.4082 18.9863 63.5156 19.5625 63.6328 20.1289C63.75 20.6953 63.8086 21.2715 63.8086 21.8574C63.8086 22.0332 63.75 22.2676 63.6328 22.5605C63.5156 22.8535 63.3301 23 63.0762 23C62.5488 23 62.1191 22.8438 61.7871 22.5312C61.4551 22.2188 61.2695 21.7988 61.2305 21.2715C61.1328 20.2559 61.0254 19.1426 60.9082 17.9316C60.8105 16.7207 60.7129 15.5586 60.6152 14.4453H60.498ZM71.9824 21.8867C71.7871 19.9336 71.6211 18.2637 71.4844 16.877C71.3477 15.4902 71.2305 14.3281 71.1328 13.3906C71.0352 12.4531 70.9473 11.7109 70.8691 11.1641C70.8105 10.5977 70.7617 10.1777 70.7227 9.9043C70.6836 9.61133 70.6543 9.41602 70.6348 9.31836C70.6152 9.2207 70.6055 9.16211 70.6055 9.14258V9.02539C70.6055 8.81055 70.6934 8.63477 70.8691 8.49805C71.0645 8.3418 71.2598 8.26367 71.4551 8.26367C71.748 8.26367 72.0605 8.3125 72.3926 8.41016C72.7441 8.50781 72.9785 8.71289 73.0957 9.02539C73.2715 9.98242 73.3887 10.9492 73.4473 11.9258C73.5254 12.9023 73.584 13.8789 73.623 14.8555C73.6816 15.8125 73.75 16.7793 73.8281 17.7559C73.9258 18.7324 74.0918 19.6992 74.3262 20.6562C74.3262 20.6953 74.3359 20.7734 74.3555 20.8906C74.3945 21.0078 74.4238 21.1348 74.4434 21.2715C74.4824 21.4082 74.5117 21.5352 74.5312 21.6523C74.5508 21.7695 74.5605 21.8477 74.5605 21.8867V21.9453C74.5605 21.9648 74.5703 21.9844 74.5898 22.0039C74.5898 22.2383 74.4824 22.4727 74.2676 22.707C74.0527 22.9414 73.8281 23.0391 73.5938 23C73.5352 22.9805 73.3887 22.9512 73.1543 22.9121C72.9395 22.8535 72.793 22.8047 72.7148 22.7656C72.6562 22.7461 72.5781 22.707 72.4805 22.6484C72.3828 22.5703 72.2852 22.4922 72.1875 22.4141C72.1094 22.3359 72.041 22.248 71.9824 22.1504C71.9238 22.0527 71.9238 21.9648 71.9824 21.8867ZM70.3418 0.529297C70.3418 0.392578 70.4492 0.275391 70.6641 0.177734C70.8984 0.0605469 71.0742 0.00195312 71.1914 0.00195312C71.4844 0.00195312 71.8066 0.0898438 72.1582 0.265625C72.5293 0.421875 72.7148 0.666016 72.7148 0.998047C72.7148 1.33008 72.666 1.55469 72.5684 1.67188C72.4902 1.78906 72.2852 1.84766 71.9531 1.84766C71.6016 1.84766 71.2402 1.73047 70.8691 1.49609C70.5176 1.26172 70.3418 0.939453 70.3418 0.529297ZM75.7617 18.5176L76.8457 10.9883C76.8848 10.7344 76.9922 10.5488 77.168 10.4316C77.3633 10.3145 77.5781 10.2559 77.8125 10.2559C78.2422 10.2559 78.584 10.3828 78.8379 10.6367C79.0918 10.8711 79.3066 11.1641 79.4824 11.5156H79.5117C79.7461 11.5156 79.9512 11.4766 80.127 11.3984C80.3223 11.3008 80.5566 11.252 80.8301 11.252C81.4551 11.252 81.9824 11.4473 82.4121 11.8379C82.8613 12.2285 83.2227 12.707 83.4961 13.2734C83.7695 13.8203 83.9648 14.416 84.082 15.0605C84.2188 15.7051 84.2871 16.2715 84.2871 16.7598C84.2871 17.3457 84.1309 18 83.8184 18.7227C83.5254 19.4453 83.125 20.1289 82.6172 20.7734C82.1289 21.418 81.5723 21.9551 80.9473 22.3848C80.3223 22.8145 79.6875 23.0293 79.043 23.0293C78.457 23.0293 77.9492 22.8926 77.5195 22.6191C77.1094 22.3457 76.7676 22.0039 76.4941 21.5938C76.2402 21.1641 76.0547 20.6855 75.9375 20.1582C75.8203 19.6309 75.7617 19.1133 75.7617 18.6055V18.5176ZM78.2227 18.6934C78.2617 18.8887 78.3008 19.1133 78.3398 19.3672C78.3789 19.6211 78.4375 19.8555 78.5156 20.0703C78.5938 20.2656 78.7012 20.4219 78.8379 20.5391C78.9941 20.6367 79.209 20.6367 79.4824 20.5391C79.7363 20.3047 80.0098 20.041 80.3027 19.748C80.5957 19.4551 80.8691 19.1426 81.123 18.8105C81.3965 18.4785 81.6211 18.127 81.7969 17.7559C81.9727 17.3848 82.0605 16.9941 82.0605 16.584C82.1387 15.9199 82.0898 15.3145 81.9141 14.7676C81.7383 14.2012 81.4844 13.8008 81.1523 13.5664C80.8398 13.3125 80.4785 13.2832 80.0684 13.4785C79.6582 13.6543 79.248 14.1523 78.8379 14.9727C78.6035 15.4805 78.4375 16.0762 78.3398 16.7598C78.2617 17.4238 78.2227 18.0391 78.2227 18.6055V18.6934ZM93.9258 22.0039C93.6523 21.6133 93.418 21.0762 93.2227 20.3926C93.0469 19.6895 92.8711 18.957 92.6953 18.1953C92.5391 17.4141 92.3926 16.6621 92.2559 15.9395C92.1191 15.1973 91.9727 14.6113 91.8164 14.1816C91.6797 13.7324 91.5234 13.4785 91.3477 13.4199C91.1719 13.3613 90.9668 13.625 90.7324 14.2109L88.1836 22.0625C88.0859 22.3359 87.9688 22.5312 87.832 22.6484C87.6953 22.7461 87.4707 22.7949 87.1582 22.7949C87.002 22.7949 86.8359 22.7754 86.6602 22.7363C86.4844 22.6777 86.3184 22.5996 86.1621 22.502C86.0059 22.4043 85.8691 22.2871 85.752 22.1504C85.6543 22.0137 85.5957 21.8574 85.5762 21.6816C85.6348 21.4473 85.6836 21.0176 85.7227 20.3926C85.7812 19.7676 85.8203 19.0449 85.8398 18.2246C85.8594 17.4043 85.8691 16.5449 85.8691 15.6465C85.8887 14.7285 85.8887 13.8789 85.8691 13.0977C85.8691 12.2969 85.8594 11.6133 85.8398 11.0469C85.8203 10.4609 85.8008 10.0801 85.7812 9.9043C85.7812 9.70898 85.7812 9.51367 85.7812 9.31836C85.8008 9.10352 85.8301 8.9082 85.8691 8.73242C85.9277 8.55664 86.0156 8.41992 86.1328 8.32227C86.2695 8.20508 86.4746 8.14648 86.748 8.14648C87.1191 8.14648 87.4609 8.30273 87.7734 8.61523C88.1055 8.92773 88.2715 9.25977 88.2715 9.61133C88.2715 10.1191 88.2422 10.627 88.1836 11.1348C88.1445 11.623 88.125 12.1211 88.125 12.6289C88.125 12.9414 88.125 13.2051 88.125 13.4199C88.125 13.6348 88.1641 13.8984 88.2422 14.2109C88.3008 14.0547 88.3984 13.7812 88.5352 13.3906C88.6719 13 88.8184 12.5898 88.9746 12.1602C89.1504 11.7305 89.3066 11.3301 89.4434 10.959C89.5801 10.5684 89.6777 10.2949 89.7363 10.1387C89.873 9.74805 90.0781 9.37695 90.3516 9.02539C90.625 8.6543 90.9863 8.44922 91.4355 8.41016C91.7285 8.39062 91.9922 8.46875 92.2266 8.64453C92.4805 8.82031 92.6953 9.05469 92.8711 9.34766C93.0469 9.62109 93.1934 9.91406 93.3105 10.2266C93.4277 10.5195 93.5156 10.7734 93.5742 10.9883L95.1562 18.2832L96.3867 21.623C96.4062 21.6426 96.416 21.7012 96.416 21.7988C96.416 21.877 96.416 21.9355 96.416 21.9746C96.416 22.209 96.3574 22.4434 96.2402 22.6777C96.1426 22.8926 95.957 23 95.6836 23C95.3516 23 95.0098 22.9121 94.6582 22.7363C94.3066 22.541 94.0625 22.2969 93.9258 22.0039Z" fill="#CCCCCC"/>
</svg>
