<svg width="80" height="22" viewBox="0 0 80 22" fill="none" xmlns="http://www.w3.org/2000/svg">
<path d="M4.39258 19.0859C4.66341 18.7135 4.95964 18.4342 5.28125 18.248C5.61979 18.0618 5.95833 17.9095 6.29688 17.791C6.65234 17.6725 6.99935 17.5625 7.33789 17.4609C7.69336 17.3424 8.04036 17.1562 8.37891 16.9023C8.5651 16.8008 8.82747 16.6484 9.16602 16.4453C9.50456 16.2422 9.83464 16.0221 10.1562 15.7852C10.4948 15.5312 10.7826 15.2858 11.0195 15.0488C11.2734 14.8118 11.4004 14.6087 11.4004 14.4395C11.4004 14.4225 11.3919 14.4141 11.375 14.4141C11.3411 14.4141 11.3242 14.4056 11.3242 14.3887L11.2734 14.3379C11.1888 14.304 11.0534 14.2617 10.8672 14.2109C10.681 14.1602 10.571 14.1263 10.5371 14.1094C8.35352 13.8555 6.5931 13.6354 5.25586 13.4492C3.93555 13.2461 2.91146 13.0345 2.18359 12.8145C1.47266 12.5944 0.998698 12.3405 0.761719 12.0527C0.52474 11.765 0.40625 11.401 0.40625 10.9609C0.40625 10.7917 0.440104 10.6055 0.507812 10.4023C0.575521 10.1992 0.651693 9.99609 0.736328 9.79297C0.837891 9.58984 0.939453 9.40365 1.04102 9.23438C1.14258 9.0651 1.23568 8.92969 1.32031 8.82812C1.59115 8.48958 1.94661 8.1849 2.38672 7.91406C2.82682 7.64323 3.30078 7.40625 3.80859 7.20312C4.31641 7 4.82422 6.82227 5.33203 6.66992C5.85677 6.51758 6.33073 6.38216 6.75391 6.26367C7.22786 6.22982 7.70182 6.11979 8.17578 5.93359C8.66667 5.73047 9.14909 5.59505 9.62305 5.52734C9.86003 5.52734 10.0547 5.62044 10.207 5.80664C10.3594 5.99284 10.4355 6.1875 10.4355 6.39062C10.4355 6.67839 10.3763 6.89844 10.2578 7.05078C10.1562 7.1862 10.0124 7.29622 9.82617 7.38086C9.6569 7.44857 9.46224 7.50781 9.24219 7.55859C9.02214 7.59245 8.80208 7.63477 8.58203 7.68555C8.44661 7.7194 8.26042 7.77018 8.02344 7.83789C7.78646 7.88867 7.54948 7.94792 7.3125 8.01562C7.07552 8.08333 6.86393 8.14258 6.67773 8.19336C6.49154 8.24414 6.38151 8.27799 6.34766 8.29492C5.82292 8.51497 5.32357 8.72656 4.84961 8.92969C4.39258 9.11589 3.98633 9.31055 3.63086 9.51367C3.29232 9.7168 3.02148 9.93685 2.81836 10.1738C2.63216 10.3939 2.54753 10.6393 2.56445 10.9102V10.9355C2.73372 11.1725 3.11458 11.3503 3.70703 11.4688C4.29948 11.5872 4.99349 11.6888 5.78906 11.7734C6.60156 11.8581 7.44792 11.9427 8.32812 12.0273C9.22526 12.112 10.0462 12.2389 10.791 12.4082C11.5358 12.5775 12.1536 12.806 12.6445 13.0938C13.1354 13.3815 13.3893 13.7708 13.4062 14.2617C13.4062 14.4479 13.3639 14.668 13.2793 14.9219C13.2116 15.1758 13.11 15.3704 12.9746 15.5059C12.5514 15.9798 12.0436 16.4707 11.4512 16.9785C10.8757 17.4863 10.2493 17.9603 9.57227 18.4004C8.89518 18.8236 8.19271 19.1875 7.46484 19.4922C6.75391 19.7799 6.05143 19.9492 5.35742 20C5.12044 20 4.90039 19.9154 4.69727 19.7461C4.49414 19.5599 4.39258 19.3398 4.39258 19.0859ZM14.5996 16.1152L15.5391 9.58984C15.5729 9.36979 15.666 9.20898 15.8184 9.10742C15.9876 9.00586 16.1738 8.95508 16.377 8.95508C16.7493 8.95508 17.0456 9.0651 17.2656 9.28516C17.4857 9.48828 17.6719 9.74219 17.8242 10.0469H17.8496C18.0527 10.0469 18.2305 10.013 18.3828 9.94531C18.5521 9.86068 18.7552 9.81836 18.9922 9.81836C19.5339 9.81836 19.9909 9.98763 20.3633 10.3262C20.7526 10.6647 21.0658 11.0794 21.3027 11.5703C21.5397 12.0443 21.709 12.5605 21.8105 13.1191C21.929 13.6777 21.9883 14.1686 21.9883 14.5918C21.9883 15.0996 21.8529 15.6667 21.582 16.293C21.3281 16.9193 20.9811 17.5117 20.541 18.0703C20.1178 18.6289 19.6354 19.0944 19.0938 19.4668C18.5521 19.8392 18.002 20.0254 17.4434 20.0254C16.9355 20.0254 16.4954 19.9069 16.123 19.6699C15.7676 19.4329 15.4714 19.1367 15.2344 18.7812C15.0143 18.4089 14.8535 17.9941 14.752 17.5371C14.6504 17.0801 14.5996 16.6315 14.5996 16.1914V16.1152ZM16.7324 16.2676C16.7663 16.4368 16.8001 16.6315 16.834 16.8516C16.8678 17.0716 16.9186 17.2747 16.9863 17.4609C17.054 17.6302 17.1471 17.7656 17.2656 17.8672C17.401 17.9518 17.5872 17.9518 17.8242 17.8672C18.0443 17.6641 18.2812 17.4355 18.5352 17.1816C18.7891 16.9277 19.026 16.6569 19.2461 16.3691C19.4831 16.0814 19.6777 15.7767 19.8301 15.4551C19.9824 15.1335 20.0586 14.7949 20.0586 14.4395C20.1263 13.8639 20.084 13.3392 19.9316 12.8652C19.7793 12.3743 19.5592 12.0273 19.2715 11.8242C19.0007 11.6042 18.6875 11.5788 18.332 11.748C17.9766 11.9004 17.6211 12.332 17.2656 13.043C17.0625 13.4831 16.9186 13.9993 16.834 14.5918C16.7663 15.1673 16.7324 15.7005 16.7324 16.1914V16.2676ZM23.3086 18.2227C23.3086 17.5117 23.3255 16.8177 23.3594 16.1406C23.3932 15.4635 23.4102 14.7695 23.4102 14.0586C23.3594 12.1289 23.3424 10.2415 23.3594 8.39648C23.3763 6.53451 23.2917 4.63021 23.1055 2.68359C23.1055 2.36198 23.1816 2.15039 23.334 2.04883C23.4863 1.93034 23.7148 1.87109 24.0195 1.87109C24.4089 1.87109 24.7389 1.98958 25.0098 2.22656C25.2975 2.44661 25.4499 2.75977 25.4668 3.16602C25.4329 5.56966 25.4583 7.95638 25.543 10.3262C25.6445 12.679 25.6953 15.0658 25.6953 17.4863V19.4414C25.5938 19.5768 25.4499 19.7122 25.2637 19.8477C25.0775 19.9831 24.8913 20.0339 24.7051 20C24.2142 19.9154 23.8587 19.7207 23.6387 19.416C23.4186 19.0944 23.3086 18.6966 23.3086 18.2227ZM32.0176 17.5879C31.8991 17.8418 31.7806 18.1211 31.6621 18.4258C31.5436 18.7135 31.4082 18.9759 31.2559 19.2129C31.1035 19.4499 30.9173 19.653 30.6973 19.8223C30.4772 19.9746 30.1979 20.0508 29.8594 20.0508C29.2669 20.0508 28.776 19.9069 28.3867 19.6191C27.9974 19.3145 27.6758 18.9421 27.4219 18.502C27.1849 18.0449 27.0156 17.554 26.9141 17.0293C26.8125 16.5046 26.7617 16.0137 26.7617 15.5566L26.9648 9.41211C26.9479 9.29362 26.9733 9.17513 27.041 9.05664C27.1257 8.92122 27.2272 8.80273 27.3457 8.70117C27.4811 8.58268 27.625 8.48958 27.7773 8.42188C27.9466 8.35417 28.099 8.32031 28.2344 8.32031C28.6237 8.32031 28.9538 8.44727 29.2246 8.70117C29.4954 8.93815 29.6309 9.2513 29.6309 9.64062V9.89453C29.4447 10.1992 29.2839 10.597 29.1484 11.0879C29.013 11.5788 28.903 12.112 28.8184 12.6875C28.7507 13.2461 28.7083 13.8216 28.6914 14.4141C28.6745 15.0065 28.6914 15.5482 28.7422 16.0391C28.8099 16.5299 28.9115 16.9531 29.0469 17.3086C29.1823 17.6471 29.36 17.8503 29.5801 17.918C29.6647 17.918 29.7917 17.8757 29.9609 17.791C30.1471 17.7064 30.3418 17.5456 30.5449 17.3086C30.748 17.0716 30.9596 16.7415 31.1797 16.3184C31.3997 15.8783 31.5944 15.3027 31.7637 14.5918C31.9329 13.8809 32.0599 13.0176 32.1445 12.002C32.2292 10.9863 32.2546 9.76758 32.2207 8.3457C32.2884 8.15951 32.3815 8.05794 32.5 8.04102C32.6354 8.02409 32.7708 8.01562 32.9062 8.01562C33.0586 8.01562 33.1855 8.02409 33.2871 8.04102C33.3887 8.04102 33.4987 8.10026 33.6172 8.21875C33.7018 8.30339 33.7949 8.43034 33.8965 8.59961C33.998 8.76888 34.0488 8.86198 34.0488 8.87891L34.4805 20.127C34.4805 20.3809 34.4128 20.5924 34.2773 20.7617C34.1419 20.931 33.9473 21.0156 33.6934 21.0156C33.6087 21.0156 33.5072 21.0072 33.3887 20.9902C33.2702 20.9733 33.1517 20.9395 33.0332 20.8887C32.9147 20.8379 32.8047 20.7702 32.7031 20.6855C32.6185 20.6178 32.5677 20.5332 32.5508 20.4316L32.1191 17.8926L32.0176 17.5879ZM38.3145 12.5859C38.0775 12.5859 37.8659 12.6452 37.6797 12.7637C37.4935 12.8822 37.2734 12.9414 37.0195 12.9414C36.9857 12.9414 36.8926 12.9414 36.7402 12.9414C36.6048 12.9245 36.5202 12.916 36.4863 12.916C36.4186 12.8314 36.3424 12.7637 36.2578 12.7129C36.1732 12.6621 36.0885 12.6113 36.0039 12.5605C35.9193 12.4928 35.8431 12.4167 35.7754 12.332C35.7246 12.2474 35.6992 12.1289 35.6992 11.9766C35.6992 11.7227 35.8008 11.5195 36.0039 11.3672C36.207 11.1979 36.444 11.054 36.7148 10.9355C36.9857 10.8171 37.2565 10.707 37.5273 10.6055C37.8151 10.5039 38.0436 10.3854 38.2129 10.25V9.13281C38.2129 7.88021 38.1536 6.6276 38.0352 5.375C37.9167 4.10547 37.8574 2.85286 37.8574 1.61719C37.8574 1.27865 37.9421 1.05859 38.1113 0.957031C38.2806 0.855469 38.5091 0.804688 38.7969 0.804688C39.1354 0.804688 39.3809 0.90625 39.5332 1.10938C39.7025 1.29557 39.821 1.53255 39.8887 1.82031C39.9564 2.09115 39.9902 2.38737 39.9902 2.70898C39.9902 3.01367 39.9987 3.27604 40.0156 3.49609C40.0156 3.71615 40.0326 4.10547 40.0664 4.66406C40.1003 5.22266 40.1341 5.8151 40.168 6.44141C40.2018 7.06771 40.2357 7.66016 40.2695 8.21875C40.3034 8.77734 40.3288 9.16667 40.3457 9.38672C40.4134 9.36979 40.5404 9.32747 40.7266 9.25977C40.9297 9.17513 41.1413 9.09896 41.3613 9.03125C41.5814 8.94661 41.7845 8.87044 41.9707 8.80273C42.1738 8.73503 42.3177 8.68424 42.4023 8.65039C42.8424 8.46419 43.2995 8.26107 43.7734 8.04102C44.2474 7.80404 44.7298 7.68555 45.2207 7.68555C45.5592 7.68555 45.8132 7.80404 45.9824 8.04102C46.1686 8.26107 46.2617 8.52344 46.2617 8.82812C46.2617 9.04818 46.1771 9.20898 46.0078 9.31055C45.8385 9.41211 45.6608 9.50521 45.4746 9.58984L40.8535 11.3164C40.8027 11.3503 40.752 11.3841 40.7012 11.418C40.6504 11.4349 40.5996 11.4688 40.5488 11.5195V12.332C40.5488 12.9245 40.5573 13.5423 40.5742 14.1855C40.6081 14.8118 40.6673 15.4212 40.752 16.0137C40.8366 16.5215 40.9297 17.0208 41.0312 17.5117C41.1328 18.0026 41.1836 18.502 41.1836 19.0098C41.1836 19.1621 41.1328 19.3652 41.0312 19.6191C40.9297 19.873 40.7689 20 40.5488 20C40.0918 20 39.7194 19.8646 39.4316 19.5938C39.1439 19.3229 38.9831 18.959 38.9492 18.502C38.8646 17.6217 38.7715 16.6569 38.6699 15.6074C38.5853 14.5579 38.5007 13.5508 38.416 12.5859H38.3145ZM48.2676 19.0352C48.0983 17.3424 47.9544 15.8952 47.8359 14.6934C47.7174 13.4915 47.6159 12.4844 47.5312 11.6719C47.4466 10.8594 47.3704 10.2161 47.3027 9.74219C47.252 9.2513 47.2096 8.88737 47.1758 8.65039C47.1419 8.39648 47.1165 8.22721 47.0996 8.14258C47.0827 8.05794 47.0742 8.00716 47.0742 7.99023V7.88867C47.0742 7.70247 47.1504 7.55013 47.3027 7.43164C47.472 7.29622 47.6413 7.22852 47.8105 7.22852C48.0645 7.22852 48.3353 7.27083 48.623 7.35547C48.9277 7.4401 49.1309 7.61784 49.2324 7.88867C49.3848 8.7181 49.4863 9.55599 49.5371 10.4023C49.6048 11.2487 49.6556 12.0951 49.6895 12.9414C49.7402 13.7708 49.7995 14.6087 49.8672 15.4551C49.9518 16.3014 50.0957 17.1393 50.2988 17.9688C50.2988 18.0026 50.3073 18.0703 50.3242 18.1719C50.3581 18.2734 50.3835 18.3835 50.4004 18.502C50.4342 18.6204 50.4596 18.7305 50.4766 18.832C50.4935 18.9336 50.502 19.0013 50.502 19.0352V19.0859C50.502 19.1029 50.5104 19.1198 50.5273 19.1367C50.5273 19.3398 50.4342 19.543 50.248 19.7461C50.0618 19.9492 49.8672 20.0339 49.6641 20C49.6133 19.9831 49.4863 19.9577 49.2832 19.9238C49.097 19.873 48.9701 19.8307 48.9023 19.7969C48.8516 19.7799 48.7839 19.7461 48.6992 19.6953C48.6146 19.6276 48.5299 19.5599 48.4453 19.4922C48.3776 19.4245 48.3184 19.3483 48.2676 19.2637C48.2168 19.179 48.2168 19.1029 48.2676 19.0352ZM46.8457 0.525391C46.8457 0.406901 46.9388 0.305339 47.125 0.220703C47.3281 0.119141 47.4805 0.0683594 47.582 0.0683594C47.8359 0.0683594 48.1152 0.144531 48.4199 0.296875C48.7415 0.432292 48.9023 0.64388 48.9023 0.931641C48.9023 1.2194 48.86 1.41406 48.7754 1.51562C48.7077 1.61719 48.5299 1.66797 48.2422 1.66797C47.9375 1.66797 47.6243 1.56641 47.3027 1.36328C46.998 1.16016 46.8457 0.880859 46.8457 0.525391ZM51.543 16.1152L52.4824 9.58984C52.5163 9.36979 52.6094 9.20898 52.7617 9.10742C52.931 9.00586 53.1172 8.95508 53.3203 8.95508C53.6927 8.95508 53.9889 9.0651 54.209 9.28516C54.429 9.48828 54.6152 9.74219 54.7676 10.0469H54.793C54.9961 10.0469 55.1738 10.013 55.3262 9.94531C55.4954 9.86068 55.6986 9.81836 55.9355 9.81836C56.4772 9.81836 56.9342 9.98763 57.3066 10.3262C57.696 10.6647 58.0091 11.0794 58.2461 11.5703C58.4831 12.0443 58.6523 12.5605 58.7539 13.1191C58.8724 13.6777 58.9316 14.1686 58.9316 14.5918C58.9316 15.0996 58.7962 15.6667 58.5254 16.293C58.2715 16.9193 57.9245 17.5117 57.4844 18.0703C57.0612 18.6289 56.5788 19.0944 56.0371 19.4668C55.4954 19.8392 54.9453 20.0254 54.3867 20.0254C53.8789 20.0254 53.4388 19.9069 53.0664 19.6699C52.7109 19.4329 52.4147 19.1367 52.1777 18.7812C51.9577 18.4089 51.7969 17.9941 51.6953 17.5371C51.5938 17.0801 51.543 16.6315 51.543 16.1914V16.1152ZM53.6758 16.2676C53.7096 16.4368 53.7435 16.6315 53.7773 16.8516C53.8112 17.0716 53.862 17.2747 53.9297 17.4609C53.9974 17.6302 54.0905 17.7656 54.209 17.8672C54.3444 17.9518 54.5306 17.9518 54.7676 17.8672C54.9876 17.6641 55.2246 17.4355 55.4785 17.1816C55.7324 16.9277 55.9694 16.6569 56.1895 16.3691C56.4264 16.0814 56.6211 15.7767 56.7734 15.4551C56.9258 15.1335 57.002 14.7949 57.002 14.4395C57.0697 13.8639 57.0273 13.3392 56.875 12.8652C56.7227 12.3743 56.5026 12.0273 56.2148 11.8242C55.944 11.6042 55.6309 11.5788 55.2754 11.748C54.9199 11.9004 54.5645 12.332 54.209 13.043C54.0059 13.4831 53.862 13.9993 53.7773 14.5918C53.7096 15.1673 53.6758 15.7005 53.6758 16.1914V16.2676ZM67.2852 19.1367C67.0482 18.7982 66.8451 18.3327 66.6758 17.7402C66.5234 17.1309 66.3711 16.4961 66.2188 15.8359C66.0833 15.1589 65.9564 14.5072 65.8379 13.8809C65.7194 13.2376 65.5924 12.7298 65.457 12.3574C65.3385 11.9681 65.2031 11.748 65.0508 11.6973C64.8984 11.6465 64.7207 11.875 64.5176 12.3828L62.3086 19.1875C62.224 19.4245 62.1224 19.5938 62.0039 19.6953C61.8854 19.7799 61.6908 19.8223 61.4199 19.8223C61.2845 19.8223 61.1406 19.8053 60.9883 19.7715C60.8359 19.7207 60.6921 19.653 60.5566 19.5684C60.4212 19.4837 60.3027 19.3822 60.2012 19.2637C60.1165 19.1452 60.0658 19.0098 60.0488 18.8574C60.0996 18.6543 60.1419 18.2819 60.1758 17.7402C60.2266 17.1986 60.2604 16.5723 60.2773 15.8613C60.2943 15.1504 60.3027 14.4056 60.3027 13.627C60.3197 12.8314 60.3197 12.0951 60.3027 11.418C60.3027 10.724 60.2943 10.1315 60.2773 9.64062C60.2604 9.13281 60.2435 8.80273 60.2266 8.65039C60.2266 8.48112 60.2266 8.31185 60.2266 8.14258C60.2435 7.95638 60.2689 7.78711 60.3027 7.63477C60.3535 7.48242 60.4297 7.36393 60.5312 7.2793C60.6497 7.17773 60.8275 7.12695 61.0645 7.12695C61.3861 7.12695 61.6823 7.26237 61.9531 7.5332C62.2409 7.80404 62.3848 8.0918 62.3848 8.39648C62.3848 8.83659 62.3594 9.27669 62.3086 9.7168C62.2747 10.14 62.2578 10.5716 62.2578 11.0117C62.2578 11.2826 62.2578 11.5111 62.2578 11.6973C62.2578 11.8835 62.2917 12.112 62.3594 12.3828C62.4102 12.2474 62.4948 12.0104 62.6133 11.6719C62.7318 11.3333 62.8587 10.9779 62.9941 10.6055C63.1465 10.2331 63.2819 9.88607 63.4004 9.56445C63.5189 9.22591 63.6035 8.98893 63.6543 8.85352C63.7728 8.51497 63.9505 8.19336 64.1875 7.88867C64.4245 7.56706 64.7376 7.38932 65.127 7.35547C65.3809 7.33854 65.6094 7.40625 65.8125 7.55859C66.0326 7.71094 66.2188 7.91406 66.3711 8.16797C66.5234 8.40495 66.6504 8.65885 66.752 8.92969C66.8535 9.18359 66.9297 9.40365 66.9805 9.58984L68.3516 15.9121L69.418 18.8066C69.4349 18.8236 69.4434 18.8743 69.4434 18.959C69.4434 19.0267 69.4434 19.0775 69.4434 19.1113C69.4434 19.3145 69.3926 19.5176 69.291 19.7207C69.2064 19.9069 69.0456 20 68.8086 20C68.5208 20 68.2246 19.9238 67.9199 19.7715C67.6152 19.6022 67.4036 19.3906 67.2852 19.1367ZM74.3945 19.0352C74.3945 18.9505 74.3945 18.8743 74.3945 18.8066C74.4115 18.7389 74.4538 18.6712 74.5215 18.6035C74.7246 18.3496 74.9531 18.0872 75.207 17.8164C75.4609 17.5286 75.7064 17.2493 75.9434 16.9785C76.1803 16.6908 76.4004 16.3945 76.6035 16.0898C76.8066 15.7852 76.9759 15.4805 77.1113 15.1758V15.0234L73.7852 15.709H73.4043C73.1673 15.709 72.8711 15.6921 72.5156 15.6582C72.1771 15.6243 71.8385 15.5566 71.5 15.4551C71.1784 15.3366 70.8991 15.1758 70.6621 14.9727C70.4421 14.7695 70.332 14.4987 70.332 14.1602C70.349 13.7708 70.5521 13.3392 70.9414 12.8652C71.3307 12.3913 71.7878 11.9258 72.3125 11.4688C72.8372 11.0117 73.362 10.5885 73.8867 10.1992C74.4284 9.8099 74.86 9.50521 75.1816 9.28516C75.5371 9.08203 75.9603 8.92122 76.4512 8.80273C76.9421 8.66732 77.3906 8.59961 77.7969 8.59961C78.1354 8.59961 78.4316 8.66732 78.6855 8.80273C78.9395 8.92122 79.0664 9.16667 79.0664 9.53906C79.0664 9.69141 79.0495 9.83529 79.0156 9.9707C78.9987 10.1061 78.8971 10.1992 78.7109 10.25C78.1693 10.1992 77.6615 10.2415 77.1875 10.377C76.7135 10.4954 76.265 10.6816 75.8418 10.9355C75.4186 11.1895 75.0208 11.4941 74.6484 11.8496C74.276 12.1882 73.9121 12.5436 73.5566 12.916C73.4551 13.0345 73.3281 13.2038 73.1758 13.4238C73.0234 13.627 72.9473 13.7454 72.9473 13.7793V13.8047C73.3874 13.8047 73.819 13.7624 74.2422 13.6777C74.6823 13.5931 75.1139 13.5085 75.5371 13.4238C75.9772 13.3223 76.4089 13.2292 76.832 13.1445C77.2721 13.0599 77.7207 13.0176 78.1777 13.0176C78.347 13.0176 78.5332 13.0345 78.7363 13.0684C78.9395 13.0853 79.1257 13.1361 79.2949 13.2207C79.4811 13.3053 79.625 13.4238 79.7266 13.5762C79.8451 13.7116 79.9043 13.8893 79.9043 14.1094C79.9043 14.431 79.8197 14.7441 79.6504 15.0488C79.498 15.3366 79.2611 15.6921 78.9395 16.1152C78.6348 16.5215 78.237 17.0208 77.7461 17.6133C77.2721 18.2057 76.7051 18.9674 76.0449 19.8984C76.0111 19.9492 75.9264 19.9831 75.791 20C75.6725 20.0169 75.571 20.0254 75.4863 20.0254C75.2493 20.0254 75.0039 19.9238 74.75 19.7207C74.513 19.5176 74.3945 19.2891 74.3945 19.0352Z" fill="#CCCCCC"/>
</svg>
