<svg width="83" height="24" viewBox="0 0 83 24" fill="none" xmlns="http://www.w3.org/2000/svg">
<path d="M6.38672 10.1387C6.36719 9.98242 6.33789 9.78711 6.29883 9.55273C6.2793 9.29883 6.25 9.06445 6.21094 8.84961C6.19141 8.61523 6.17188 8.41992 6.15234 8.26367C6.13281 8.10742 6.12305 8.0293 6.12305 8.0293H5.88867L2.54883 9.02539C2.45117 9.18164 2.28516 9.25977 2.05078 9.25977C1.83594 9.25977 1.66992 9.25977 1.55273 9.25977C1.2793 9.25977 0.996094 9.14258 0.703125 8.9082C0.429688 8.6543 0.292969 8.38086 0.292969 8.08789C0.292969 7.87305 0.361328 7.66797 0.498047 7.47266C0.654297 7.25781 0.839844 7.11133 1.05469 7.0332L5.77148 5.53906C5.83008 5.32422 5.9375 5.10938 6.09375 4.89453C6.26953 4.66016 6.49414 4.54297 6.76758 4.54297C7.04102 4.54297 7.26562 4.61133 7.44141 4.74805C7.63672 4.88477 7.85156 4.99219 8.08594 5.07031C8.26172 5.05078 8.55469 4.99219 8.96484 4.89453C9.375 4.79687 9.80469 4.69922 10.2539 4.60156C10.7227 4.48438 11.1621 4.37695 11.5723 4.2793C11.9824 4.18164 12.2656 4.11328 12.4219 4.07422C12.6562 4.03516 12.832 3.98633 12.9492 3.92773C13.0664 3.86914 13.252 3.83984 13.5059 3.83984C13.8379 3.83984 14.1797 3.9375 14.5312 4.13281C14.8828 4.32812 15.0586 4.62109 15.0586 5.01172C15.0586 5.26562 14.9707 5.49023 14.7949 5.68555C14.6191 5.86133 14.4043 5.97852 14.1504 6.03711L8.58398 7.44336V7.70703C8.58398 8.3125 8.63281 8.9082 8.73047 9.49414C8.84766 10.0801 8.88672 10.666 8.84766 11.252L9.84375 20.3047V20.9492C9.84375 21.1836 9.83398 21.4277 9.81445 21.6816C9.81445 21.916 9.77539 22.1309 9.69727 22.3262C9.63867 22.5215 9.53125 22.6875 9.375 22.8242C9.21875 22.9414 8.98438 23 8.67188 23C8.4375 23 8.18359 22.9023 7.91016 22.707C7.65625 22.5117 7.51953 22.2773 7.5 22.0039L6.38672 10.373V10.1387ZM15.2051 21.8867C15.0098 19.9336 14.8438 18.2637 14.707 16.877C14.5703 15.4902 14.4531 14.3281 14.3555 13.3906C14.2578 12.4531 14.1699 11.7109 14.0918 11.1641C14.0332 10.5977 13.9844 10.1777 13.9453 9.9043C13.9062 9.61133 13.877 9.41602 13.8574 9.31836C13.8379 9.2207 13.8281 9.16211 13.8281 9.14258V9.02539C13.8281 8.81055 13.916 8.63477 14.0918 8.49805C14.2871 8.3418 14.4824 8.26367 14.6777 8.26367C14.9707 8.26367 15.2832 8.3125 15.6152 8.41016C15.9668 8.50781 16.2012 8.71289 16.3184 9.02539C16.4941 9.98242 16.6113 10.9492 16.6699 11.9258C16.748 12.9023 16.8066 13.8789 16.8457 14.8555C16.9043 15.8125 16.9727 16.7793 17.0508 17.7559C17.1484 18.7324 17.3145 19.6992 17.5488 20.6562C17.5488 20.6953 17.5586 20.7734 17.5781 20.8906C17.6172 21.0078 17.6465 21.1348 17.666 21.2715C17.7051 21.4082 17.7344 21.5352 17.7539 21.6523C17.7734 21.7695 17.7832 21.8477 17.7832 21.8867V21.9453C17.7832 21.9648 17.793 21.9844 17.8125 22.0039C17.8125 22.2383 17.7051 22.4727 17.4902 22.707C17.2754 22.9414 17.0508 23.0391 16.8164 23C16.7578 22.9805 16.6113 22.9512 16.377 22.9121C16.1621 22.8535 16.0156 22.8047 15.9375 22.7656C15.8789 22.7461 15.8008 22.707 15.7031 22.6484C15.6055 22.5703 15.5078 22.4922 15.4102 22.4141C15.332 22.3359 15.2637 22.248 15.2051 22.1504C15.1465 22.0527 15.1465 21.9648 15.2051 21.8867ZM13.5645 0.529297C13.5645 0.392578 13.6719 0.275391 13.8867 0.177734C14.1211 0.0605469 14.2969 0.00195312 14.4141 0.00195312C14.707 0.00195312 15.0293 0.0898438 15.3809 0.265625C15.752 0.421875 15.9375 0.666016 15.9375 0.998047C15.9375 1.33008 15.8887 1.55469 15.791 1.67188C15.7129 1.78906 15.5078 1.84766 15.1758 1.84766C14.8242 1.84766 14.4629 1.73047 14.0918 1.49609C13.7402 1.26172 13.5645 0.939453 13.5645 0.529297ZM19.3359 13.4492C19.2969 12.9414 19.248 12.4336 19.1895 11.9258C19.1504 11.3984 19.082 10.8809 18.9844 10.373C18.9844 9.94336 19.1211 9.66992 19.3945 9.55273C19.6875 9.43555 20 9.37695 20.332 9.37695H20.918C21.2109 9.51367 21.416 9.67969 21.5332 9.875C21.6504 10.0703 21.7285 10.2852 21.7676 10.5195C21.8066 10.7539 21.8164 10.998 21.7969 11.252C21.7969 11.5059 21.8066 11.75 21.8262 11.9844C21.8457 12.082 21.8555 12.248 21.8555 12.4824C21.8555 12.7168 21.8555 12.9609 21.8555 13.2148C21.875 13.4688 21.8945 13.7031 21.9141 13.918C21.9531 14.1328 22.002 14.2695 22.0605 14.3281L24.6387 9.49414C24.7559 9.2793 24.9219 9.10352 25.1367 8.9668C25.3711 8.81055 25.625 8.75195 25.8984 8.79102C26.3281 8.83008 26.6504 8.91797 26.8652 9.05469C27.0801 9.17188 27.2266 9.33789 27.3047 9.55273C27.4023 9.74805 27.4512 9.99219 27.4512 10.2852C27.4707 10.5781 27.4902 10.9004 27.5098 11.252C27.5098 11.3691 27.5195 11.5938 27.5391 11.9258C27.5586 12.2383 27.5781 12.5703 27.5977 12.9219C27.6367 13.2734 27.666 13.6055 27.6855 13.918C27.7246 14.2305 27.7539 14.4453 27.7734 14.5625H27.8906C27.9297 14.4258 27.998 14.1621 28.0957 13.7715C28.2129 13.3809 28.3398 12.9707 28.4766 12.541C28.6133 12.1113 28.7402 11.7012 28.8574 11.3105C28.9746 10.9199 29.0625 10.6465 29.1211 10.4902C29.1406 10.4512 29.1797 10.373 29.2383 10.2559C29.2969 10.1191 29.3555 9.98242 29.4141 9.8457C29.4727 9.68945 29.5312 9.55273 29.5898 9.43555C29.6484 9.29883 29.6875 9.20117 29.707 9.14258C29.8438 8.92773 29.9805 8.82031 30.1172 8.82031C30.2734 8.80078 30.4395 8.79102 30.6152 8.79102C31.1035 8.79102 31.4746 8.91797 31.7285 9.17188C32.002 9.40625 32.1973 9.70898 32.3145 10.0801C32.4512 10.4512 32.5488 10.8613 32.6074 11.3105C32.666 11.7402 32.7344 12.1406 32.8125 12.5117C32.832 12.5117 32.8418 12.5312 32.8418 12.5703C32.8418 12.5898 32.832 12.6094 32.8125 12.6289L34.4238 21.1543C34.502 21.2324 34.541 21.3008 34.541 21.3594C34.5605 21.418 34.5703 21.4961 34.5703 21.5938C34.5703 21.8086 34.4629 22.0234 34.248 22.2383C34.0527 22.4336 33.8477 22.5312 33.6328 22.5312C33.3398 22.5312 32.998 22.4238 32.6074 22.209C32.2363 21.9941 32.0215 21.7207 31.9629 21.3887L30.6152 14.4453L30.4688 14.2109C30.4297 14.3086 30.3418 14.5918 30.2051 15.0605C30.0879 15.5098 29.9414 16.0859 29.7656 16.7891C29.5898 17.4727 29.3848 18.2441 29.1504 19.1035C28.9355 19.9629 28.7109 20.8418 28.4766 21.7402C28.4375 21.916 28.3203 22.0527 28.125 22.1504C27.9492 22.2285 27.793 22.2676 27.6562 22.2676C27.2461 22.2676 26.9141 22.2188 26.6602 22.1211C26.4062 22.0234 26.2109 21.877 26.0742 21.6816C25.9375 21.4863 25.8398 21.252 25.7812 20.9785C25.7227 20.7051 25.6738 20.3926 25.6348 20.041C25.6348 19.9629 25.6152 19.6895 25.5762 19.2207C25.5371 18.7324 25.4883 18.1855 25.4297 17.5801C25.3906 16.9551 25.3418 16.3301 25.2832 15.7051C25.2246 15.0801 25.1855 14.582 25.166 14.2109C25.166 14.1328 25.166 14.0742 25.166 14.0352C25.166 13.9961 25.166 13.9668 25.166 13.9473C25.166 13.9082 25.1562 13.8691 25.1367 13.8301C25.1172 13.7715 25.0781 13.6836 25.0195 13.5664L24.1699 15.5879L22.8223 20.5391L22.5293 22.3555C22.5098 22.4727 22.4512 22.5801 22.3535 22.6777C22.2754 22.7559 22.1777 22.8242 22.0605 22.8828C21.9434 22.9219 21.8262 22.9512 21.709 22.9707C21.5918 22.9902 21.4941 23 21.416 23C20.9863 23 20.6152 22.8438 20.3027 22.5312C20.0098 22.2188 19.8535 21.877 19.834 21.5059C19.8145 21.3691 19.7949 21.1055 19.7754 20.7148C19.7559 20.3047 19.7266 19.8262 19.6875 19.2793C19.6484 18.7324 19.6094 18.1562 19.5703 17.5508C19.5508 16.9453 19.5215 16.3691 19.4824 15.8223C19.4434 15.2754 19.4043 14.7969 19.3652 14.3867C19.3457 13.9766 19.3359 13.7031 19.3359 13.5664V13.4492ZM48.1641 14.6797C48.125 15.0312 48.0762 15.3047 48.0176 15.5C47.9785 15.6953 47.9004 15.8711 47.7832 16.0273C47.666 16.1836 47.5 16.3496 47.2852 16.5254C47.0703 16.6816 46.7773 16.916 46.4062 17.2285C46.0352 17.5215 45.5762 17.9121 45.0293 18.4004C44.4824 18.8887 43.8184 19.5234 43.0371 20.3047C42.7246 20.5977 42.4023 20.9004 42.0703 21.2129C41.7383 21.5254 41.3867 21.8086 41.0156 22.0625C40.6641 22.2969 40.293 22.4922 39.9023 22.6484C39.5117 22.8047 39.1016 22.8828 38.6719 22.8828C37.832 22.8828 37.2168 22.5996 36.8262 22.0332C36.4355 21.4668 36.2402 20.8125 36.2402 20.0703C36.2402 19.582 36.25 19.1719 36.2695 18.8398C36.3086 18.5078 36.3867 18.0781 36.5039 17.5508C36.2891 17.3555 36.1035 17.1895 35.9473 17.0527C35.791 16.8965 35.7129 16.6914 35.7129 16.4375C35.7129 16.2031 35.7617 16.0469 35.8594 15.9688C35.9766 15.8906 36.1035 15.8418 36.2402 15.8223C36.3965 15.7832 36.543 15.7441 36.6797 15.7051C36.8164 15.666 36.9141 15.5879 36.9727 15.4707C37.0117 15.3535 37.0801 15.1387 37.1777 14.8262C37.2949 14.5137 37.4121 14.1914 37.5293 13.8594C37.6465 13.5078 37.7539 13.1855 37.8516 12.8926C37.9688 12.5801 38.0469 12.3652 38.0859 12.248C38.2227 11.916 38.3691 11.584 38.5254 11.252C38.7012 10.9004 38.8965 10.5879 39.1113 10.3145C39.3457 10.041 39.6094 9.81641 39.9023 9.64062C40.2148 9.46484 40.5762 9.37695 40.9863 9.37695C41.2207 9.37695 41.5039 9.48438 41.8359 9.69922C42.1875 9.91406 42.5195 10.1777 42.832 10.4902C43.1445 10.7832 43.4082 11.0957 43.623 11.4277C43.8379 11.7598 43.9453 12.043 43.9453 12.2773C43.9453 12.5703 43.877 12.8438 43.7402 13.0977C43.6035 13.332 43.4277 13.5566 43.2129 13.7715C43.0176 13.9668 42.8027 14.1523 42.5684 14.3281C42.334 14.5039 42.1191 14.6699 41.9238 14.8262C41.9043 14.8262 41.8652 14.8457 41.8066 14.8848C41.748 14.9238 41.6992 14.9531 41.6602 14.9727C41.6406 14.9922 41.5918 15.041 41.5137 15.1191C41.4551 15.1777 41.3867 15.2461 41.3086 15.3242C41.2305 15.4023 41.1523 15.4805 41.0742 15.5586C41.0156 15.6367 40.9766 15.6855 40.957 15.7051C40.8984 15.7637 40.7812 15.8613 40.6055 15.998C40.4492 16.1152 40.2734 16.252 40.0781 16.4082C39.8828 16.5449 39.6973 16.6816 39.5215 16.8184C39.3652 16.9355 39.2578 17.0137 39.1992 17.0527L39.082 17.2871C39.043 17.3652 39.0039 17.541 38.9648 17.8145C38.9453 18.0684 38.916 18.3613 38.877 18.6934C38.8379 19.0254 38.7988 19.3672 38.7598 19.7188C38.7402 20.0508 38.7305 20.3242 38.7305 20.5391C38.7305 20.5586 38.7402 20.5781 38.7598 20.5977C38.7988 20.6367 38.8281 20.6562 38.8477 20.6562C39.0039 20.6562 39.1504 20.5879 39.2871 20.4512C39.4238 20.3145 39.5703 20.2168 39.7266 20.1582L44.4141 15.8223L45.6152 13.9766C45.7129 13.8398 45.8984 13.6934 46.1719 13.5371C46.4648 13.3613 46.7578 13.2734 47.0508 13.2734C47.3438 13.2539 47.5977 13.3418 47.8125 13.5371C48.0469 13.7324 48.1641 14.1133 48.1641 14.6797ZM41.7188 12.3945C41.8164 12.3164 41.8555 12.1992 41.8359 12.043C41.8164 11.8867 41.7578 11.75 41.6602 11.6328C41.582 11.5156 41.4746 11.4473 41.3379 11.4277C41.2012 11.3887 41.0742 11.457 40.957 11.6328C40.8984 11.7109 40.791 11.8672 40.6348 12.1016C40.498 12.3359 40.3516 12.5801 40.1953 12.834C40.0586 13.0684 39.9414 13.2734 39.8438 13.4492C39.7461 13.625 39.7266 13.6934 39.7852 13.6543L41.7188 12.3945ZM49.1895 20.9492C49.1895 20.1289 49.209 19.3281 49.248 18.5469C49.2871 17.7656 49.3066 16.9648 49.3066 16.1445C49.248 13.918 49.2285 11.7402 49.248 9.61133C49.2676 7.46289 49.1699 5.26562 48.9551 3.01953C48.9551 2.64844 49.043 2.4043 49.2188 2.28711C49.3945 2.15039 49.6582 2.08203 50.0098 2.08203C50.459 2.08203 50.8398 2.21875 51.1523 2.49219C51.4844 2.74609 51.6602 3.10742 51.6797 3.57617C51.6406 6.34961 51.6699 9.10352 51.7676 11.8379C51.8848 14.5527 51.9434 17.3066 51.9434 20.0996V22.3555C51.8262 22.5117 51.6602 22.668 51.4453 22.8242C51.2305 22.9805 51.0156 23.0391 50.8008 23C50.2344 22.9023 49.8242 22.6777 49.5703 22.3262C49.3164 21.9551 49.1895 21.4961 49.1895 20.9492ZM54.8145 21.8867C54.6191 19.9336 54.4531 18.2637 54.3164 16.877C54.1797 15.4902 54.0625 14.3281 53.9648 13.3906C53.8672 12.4531 53.7793 11.7109 53.7012 11.1641C53.6426 10.5977 53.5938 10.1777 53.5547 9.9043C53.5156 9.61133 53.4863 9.41602 53.4668 9.31836C53.4473 9.2207 53.4375 9.16211 53.4375 9.14258V9.02539C53.4375 8.81055 53.5254 8.63477 53.7012 8.49805C53.8965 8.3418 54.0918 8.26367 54.2871 8.26367C54.5801 8.26367 54.8926 8.3125 55.2246 8.41016C55.5762 8.50781 55.8105 8.71289 55.9277 9.02539C56.1035 9.98242 56.2207 10.9492 56.2793 11.9258C56.3574 12.9023 56.416 13.8789 56.4551 14.8555C56.5137 15.8125 56.582 16.7793 56.6602 17.7559C56.7578 18.7324 56.9238 19.6992 57.1582 20.6562C57.1582 20.6953 57.168 20.7734 57.1875 20.8906C57.2266 21.0078 57.2559 21.1348 57.2754 21.2715C57.3145 21.4082 57.3438 21.5352 57.3633 21.6523C57.3828 21.7695 57.3926 21.8477 57.3926 21.8867V21.9453C57.3926 21.9648 57.4023 21.9844 57.4219 22.0039C57.4219 22.2383 57.3145 22.4727 57.0996 22.707C56.8848 22.9414 56.6602 23.0391 56.4258 23C56.3672 22.9805 56.2207 22.9512 55.9863 22.9121C55.7715 22.8535 55.625 22.8047 55.5469 22.7656C55.4883 22.7461 55.4102 22.707 55.3125 22.6484C55.2148 22.5703 55.1172 22.4922 55.0195 22.4141C54.9414 22.3359 54.873 22.248 54.8145 22.1504C54.7559 22.0527 54.7559 21.9648 54.8145 21.8867ZM53.1738 0.529297C53.1738 0.392578 53.2812 0.275391 53.4961 0.177734C53.7305 0.0605469 53.9062 0.00195312 54.0234 0.00195312C54.3164 0.00195312 54.6387 0.0898438 54.9902 0.265625C55.3613 0.421875 55.5469 0.666016 55.5469 0.998047C55.5469 1.33008 55.498 1.55469 55.4004 1.67188C55.3223 1.78906 55.1172 1.84766 54.7852 1.84766C54.4336 1.84766 54.0723 1.73047 53.7012 1.49609C53.3496 1.26172 53.1738 0.939453 53.1738 0.529297ZM66.8555 22.0039C66.582 21.6133 66.3477 21.0762 66.1523 20.3926C65.9766 19.6895 65.8008 18.957 65.625 18.1953C65.4688 17.4141 65.3223 16.6621 65.1855 15.9395C65.0488 15.1973 64.9023 14.6113 64.7461 14.1816C64.6094 13.7324 64.4531 13.4785 64.2773 13.4199C64.1016 13.3613 63.8965 13.625 63.6621 14.2109L61.1133 22.0625C61.0156 22.3359 60.8984 22.5312 60.7617 22.6484C60.625 22.7461 60.4004 22.7949 60.0879 22.7949C59.9316 22.7949 59.7656 22.7754 59.5898 22.7363C59.4141 22.6777 59.248 22.5996 59.0918 22.502C58.9355 22.4043 58.7988 22.2871 58.6816 22.1504C58.584 22.0137 58.5254 21.8574 58.5059 21.6816C58.5645 21.4473 58.6133 21.0176 58.6523 20.3926C58.7109 19.7676 58.75 19.0449 58.7695 18.2246C58.7891 17.4043 58.7988 16.5449 58.7988 15.6465C58.8184 14.7285 58.8184 13.8789 58.7988 13.0977C58.7988 12.2969 58.7891 11.6133 58.7695 11.0469C58.75 10.4609 58.7305 10.0801 58.7109 9.9043C58.7109 9.70898 58.7109 9.51367 58.7109 9.31836C58.7305 9.10352 58.7598 8.9082 58.7988 8.73242C58.8574 8.55664 58.9453 8.41992 59.0625 8.32227C59.1992 8.20508 59.4043 8.14648 59.6777 8.14648C60.0488 8.14648 60.3906 8.30273 60.7031 8.61523C61.0352 8.92773 61.2012 9.25977 61.2012 9.61133C61.2012 10.1191 61.1719 10.627 61.1133 11.1348C61.0742 11.623 61.0547 12.1211 61.0547 12.6289C61.0547 12.9414 61.0547 13.2051 61.0547 13.4199C61.0547 13.6348 61.0938 13.8984 61.1719 14.2109C61.2305 14.0547 61.3281 13.7812 61.4648 13.3906C61.6016 13 61.748 12.5898 61.9043 12.1602C62.0801 11.7305 62.2363 11.3301 62.373 10.959C62.5098 10.5684 62.6074 10.2949 62.666 10.1387C62.8027 9.74805 63.0078 9.37695 63.2812 9.02539C63.5547 8.6543 63.916 8.44922 64.3652 8.41016C64.6582 8.39062 64.9219 8.46875 65.1562 8.64453C65.4102 8.82031 65.625 9.05469 65.8008 9.34766C65.9766 9.62109 66.123 9.91406 66.2402 10.2266C66.3574 10.5195 66.4453 10.7734 66.5039 10.9883L68.0859 18.2832L69.3164 21.623C69.3359 21.6426 69.3457 21.7012 69.3457 21.7988C69.3457 21.877 69.3457 21.9355 69.3457 21.9746C69.3457 22.209 69.2871 22.4434 69.1699 22.6777C69.0723 22.8926 68.8867 23 68.6133 23C68.2812 23 67.9395 22.9121 67.5879 22.7363C67.2363 22.541 66.9922 22.2969 66.8555 22.0039ZM82.8809 14.6797C82.8418 15.0312 82.793 15.3047 82.7344 15.5C82.6953 15.6953 82.6172 15.8711 82.5 16.0273C82.3828 16.1836 82.2168 16.3496 82.002 16.5254C81.7871 16.6816 81.4941 16.916 81.123 17.2285C80.752 17.5215 80.293 17.9121 79.7461 18.4004C79.1992 18.8887 78.5352 19.5234 77.7539 20.3047C77.4414 20.5977 77.1191 20.9004 76.7871 21.2129C76.4551 21.5254 76.1035 21.8086 75.7324 22.0625C75.3809 22.2969 75.0098 22.4922 74.6191 22.6484C74.2285 22.8047 73.8184 22.8828 73.3887 22.8828C72.5488 22.8828 71.9336 22.5996 71.543 22.0332C71.1523 21.4668 70.957 20.8125 70.957 20.0703C70.957 19.582 70.9668 19.1719 70.9863 18.8398C71.0254 18.5078 71.1035 18.0781 71.2207 17.5508C71.0059 17.3555 70.8203 17.1895 70.6641 17.0527C70.5078 16.8965 70.4297 16.6914 70.4297 16.4375C70.4297 16.2031 70.4785 16.0469 70.5762 15.9688C70.6934 15.8906 70.8203 15.8418 70.957 15.8223C71.1133 15.7832 71.2598 15.7441 71.3965 15.7051C71.5332 15.666 71.6309 15.5879 71.6895 15.4707C71.7285 15.3535 71.7969 15.1387 71.8945 14.8262C72.0117 14.5137 72.1289 14.1914 72.2461 13.8594C72.3633 13.5078 72.4707 13.1855 72.5684 12.8926C72.6855 12.5801 72.7637 12.3652 72.8027 12.248C72.9395 11.916 73.0859 11.584 73.2422 11.252C73.418 10.9004 73.6133 10.5879 73.8281 10.3145C74.0625 10.041 74.3262 9.81641 74.6191 9.64062C74.9316 9.46484 75.293 9.37695 75.7031 9.37695C75.9375 9.37695 76.2207 9.48438 76.5527 9.69922C76.9043 9.91406 77.2363 10.1777 77.5488 10.4902C77.8613 10.7832 78.125 11.0957 78.3398 11.4277C78.5547 11.7598 78.6621 12.043 78.6621 12.2773C78.6621 12.5703 78.5938 12.8438 78.457 13.0977C78.3203 13.332 78.1445 13.5566 77.9297 13.7715C77.7344 13.9668 77.5195 14.1523 77.2852 14.3281C77.0508 14.5039 76.8359 14.6699 76.6406 14.8262C76.6211 14.8262 76.582 14.8457 76.5234 14.8848C76.4648 14.9238 76.416 14.9531 76.377 14.9727C76.3574 14.9922 76.3086 15.041 76.2305 15.1191C76.1719 15.1777 76.1035 15.2461 76.0254 15.3242C75.9473 15.4023 75.8691 15.4805 75.791 15.5586C75.7324 15.6367 75.6934 15.6855 75.6738 15.7051C75.6152 15.7637 75.498 15.8613 75.3223 15.998C75.166 16.1152 74.9902 16.252 74.7949 16.4082C74.5996 16.5449 74.4141 16.6816 74.2383 16.8184C74.082 16.9355 73.9746 17.0137 73.916 17.0527L73.7988 17.2871C73.7598 17.3652 73.7207 17.541 73.6816 17.8145C73.6621 18.0684 73.6328 18.3613 73.5938 18.6934C73.5547 19.0254 73.5156 19.3672 73.4766 19.7188C73.457 20.0508 73.4473 20.3242 73.4473 20.5391C73.4473 20.5586 73.457 20.5781 73.4766 20.5977C73.5156 20.6367 73.5449 20.6562 73.5645 20.6562C73.7207 20.6562 73.8672 20.5879 74.0039 20.4512C74.1406 20.3145 74.2871 20.2168 74.4434 20.1582L79.1309 15.8223L80.332 13.9766C80.4297 13.8398 80.6152 13.6934 80.8887 13.5371C81.1816 13.3613 81.4746 13.2734 81.7676 13.2734C82.0605 13.2539 82.3145 13.3418 82.5293 13.5371C82.7637 13.7324 82.8809 14.1133 82.8809 14.6797ZM76.4355 12.3945C76.5332 12.3164 76.5723 12.1992 76.5527 12.043C76.5332 11.8867 76.4746 11.75 76.377 11.6328C76.2988 11.5156 76.1914 11.4473 76.0547 11.4277C75.918 11.3887 75.791 11.457 75.6738 11.6328C75.6152 11.7109 75.5078 11.8672 75.3516 12.1016C75.2148 12.3359 75.0684 12.5801 74.9121 12.834C74.7754 13.0684 74.6582 13.2734 74.5605 13.4492C74.4629 13.625 74.4434 13.6934 74.502 13.6543L76.4355 12.3945Z" fill="#CCCCCC"/>
</svg>
