<svg width="24" height="29" viewBox="0 0 24 29" fill="none" xmlns="http://www.w3.org/2000/svg">
<path fill-rule="evenodd" clip-rule="evenodd" d="M5.66678 12.3334C5.66678 8.83561 8.50231 6.00008 12.0001 6.00008C15.4979 6.00008 18.3334 8.83561 18.3334 12.3334C18.3334 15.8312 15.4979 18.6667 12.0001 18.6667C8.50231 18.6667 5.66678 15.8312 5.66678 12.3334ZM12.0001 8.00008C9.60688 8.00008 7.66678 9.94018 7.66678 12.3334C7.66678 14.7266 9.60688 16.6667 12.0001 16.6667C14.3933 16.6667 16.3334 14.7266 16.3334 12.3334C16.3334 9.94018 14.3933 8.00008 12.0001 8.00008Z" fill="#8E98AE"/>
<path fill-rule="evenodd" clip-rule="evenodd" d="M0.699266 10.8092C1.1717 5.07774 5.96124 0.666748 11.7122 0.666748H12.2881C18.039 0.666748 22.8285 5.07774 23.301 10.8092C23.5547 13.8881 22.6037 16.9453 20.6482 19.3368L14.2574 27.1526C13.0908 28.5794 10.9095 28.5794 9.74281 27.1526L3.35207 19.3369C1.39652 16.9453 0.44548 13.8881 0.699266 10.8092ZM11.7122 2.66675C7.00211 2.66675 3.07944 6.27938 2.69251 10.9735C2.48129 13.536 3.27281 16.0804 4.90036 18.0708L11.2911 25.8866C11.6576 26.3347 12.3427 26.3347 12.7091 25.8866L19.0999 18.0708C20.7274 16.0804 21.5189 13.536 21.3077 10.9735C20.9208 6.27938 16.9981 2.66675 12.2881 2.66675H11.7122Z" fill="#8E98AE"/>
</svg>
