<svg width="49" height="12" viewBox="0 0 49 12" fill="none" xmlns="http://www.w3.org/2000/svg">
<path d="M8.32 11.584V9.6L3.6 7.616L8.32 5.648V3.616L0.896 6.88V8.4L8.32 11.584ZM40.6166 11.584L48.0406 8.4V6.88L40.6166 3.616V5.648L45.3366 7.616L40.6166 9.6V11.584Z" fill="#CCCCCC"/>
<path d="M13.7944 12H15.7784L19.9864 0.639999H17.5864L14.8184 8.768H14.7864L12.0024 0.639999H9.57038L13.7944 12ZM21.5133 12H23.7373V8.112H25.4973C27.9933 8.112 29.6733 6.912 29.6733 4.416C29.6733 2.24 28.4733 0.639999 25.7213 0.639999H21.5133V12ZM23.7373 6.128V2.64H25.3693C26.6653 2.64 27.3373 3.328 27.3373 4.384C27.3373 5.424 26.6653 6.128 25.2573 6.128H23.7373ZM33.7864 12H36.0584V2.64H39.2104V0.639999H30.6824V2.64H33.7864V12Z" fill="#8855F1"/>
</svg>
