<svg fill="none" height="21" viewBox="0 0 69 21" width="69" xmlns="http://www.w3.org/2000/svg"><path d="m6.16992 11.3164-.10156-.1016c-.10156.4063-.16081.8125-.17774 1.2188-.01692.4062-.03385.821-.05078 1.2441 0 .1355-.00846.364-.02539.6856 0 .3216-.00846.6686-.02539 1.041-.01692.3555-.03385.7025-.05078 1.041v.6602c-.05078.2031-.16081.3808-.33008.5332-.16927.1523-.36393.2285-.58398.2285-.08464 0-.19466-.0085-.33008-.0254-.11849-.0339-.24544-.0677-.38086-.1016-.11849-.0507-.23698-.11-.35547-.1777-.10156-.0677-.1608-.1439-.17773-.2285l-1.59961-5.6113-1.16797-4.59575c-.016927-.01692-.050781-.07617-.101562-.17773-.050782-.10156-.101563-.21159-.152344-.33008-.050782-.13542-.101563-.26237-.152344-.38086-.033854-.11849-.050781-.21159-.050781-.2793 0-.23697.110026-.42317.330078-.55859.236979-.15234.448563-.22851.634763-.22851.6263 0 1.02409.26236 1.19336.7871l1.39649 5.05272c.08463-.0338.13541-.1269.15234-.2793.03385-.1523.05078-.2454.05078-.2793 0-.0169.00846-.1015.02539-.2539.03386-.1523.08464-.41469.15235-.78709.0677-.38932.1608-.91406.27929-1.57422.13542-.66016.31315-1.50651.53321-2.53906.13541-.16927.29622-.2793.48242-.33008.1862-.06771.39778-.10156.63476-.10156.22006 0 .38933.03385.50782.10156.13541.06771.22851.22005.27929.45703l1.72657 7.26172c.03385.0846.0677.1777.10156.2793.03385.1016.06771.1947.10156.2793.06771-.5586.12695-1.0495.17773-1.4727.05079-.4401.10157-.8632.15235-1.2695.05078-.4232.10156-.86328.15234-1.32031.05078-.47395.11849-1.01562.20313-1.625.08463-.60937.18619-1.32877.30468-2.1582.11847-.82943.26237-1.81966.43167-2.9707.0508-.33854.1946-.55013.4316-.63477.2539-.08463.5332-.12695.8379-.12695.0169 0 .0508.01693.1016.05078.0677.01693.11.03385.1269.05078.0339.01693.1016.03386.2031.05078.1016.01693.1693.03386.2032.05078.0677.15235.1269.28776.1777.40625.0508.10157.0762.22006.0762.35547-.0339-.16927-.0931-.0931-.1778.22852-.0846.32161-.1946.84635-.33 1.57422-.1185.72786-.2539 1.63346-.4063 2.71679-.1354 1.06641-.2708 2.2767-.4062 3.63086-.1355 1.3372-.2624 2.793-.3809 4.3672-.1016 1.5573-.1862 3.1738-.2539 4.8496-.0508 0-.1354-.0085-.2539-.0254s-.2454-.0423-.38087-.0762c-.11849-.0338-.22851-.0761-.33007-.1269-.10157-.0508-.16927-.1185-.20313-.2031zm18.15428 1.4727c-.0338.3047-.0762.5416-.1269.7109-.0339.1693-.1016.3216-.2032.457-.1015.1354-.2454.2793-.4316.4317-.1862.1354-.4401.3385-.7617.6093-.3216.254-.7194.5925-1.1934 1.0157-.4739.4231-1.0495.9733-1.7265 1.6504-.2709.2539-.5502.5162-.8379.7871-.2878.2708-.5925.5162-.9141.7363-.3047.2031-.6263.3724-.9648.5078-.3386.1354-.694.2031-1.0664.2031-.7279 0-1.2611-.2454-1.5997-.7363-.3385-.4909-.5078-1.0579-.5078-1.7012 0-.4231.0085-.7786.0254-1.0664.0339-.2877.1016-.6601.2032-1.1172-.1862-.1692-.3471-.3131-.4825-.4316-.1354-.1354-.2031-.3131-.2031-.5332 0-.2031.0423-.3385.127-.4063.1015-.0677.2115-.11.33-.1269.1355-.0339.2624-.0677.3809-.1016.1185-.0338.2031-.1015.2539-.2031.0339-.1016.0931-.2878.1777-.5586.1016-.2708.2032-.5501.3047-.8379.1016-.3047.1947-.584.2793-.8379.1016-.2708.1693-.457.2031-.5586.1185-.2877.2455-.5755.3809-.86324.1523-.30469.3216-.57552.5078-.8125.2031-.23698.4317-.43164.6856-.58398.2708-.15235.5839-.22852.9394-.22852.2031 0 .4486.0931.7363.2793.3047.18619.5925.41471.8633.68554.2709.25391.4994.52474.6856.8125.1862.2878.2793.5332.2793.7363 0 .2539-.0593.4909-.1778.711-.1185.2031-.2708.3978-.457.584-.1693.1692-.3555.33-.5586.4824-.2031.1523-.3893.2962-.5586.4316-.0169 0-.0508.0169-.1015.0508-.0508.0339-.0931.0592-.127.0762-.0169.0169-.0592.0592-.127.1269-.0507.0508-.11.11-.1777.1778-.0677.0677-.1354.1354-.2031.2031-.0508.0677-.0846.11-.1016.1269-.0508.0508-.1523.1355-.3047.2539-.1354.1016-.2877.2201-.457.3555-.1693.1185-.3301.237-.4824.3555-.1354.1015-.2285.1692-.2793.2031l-.1016.2031c-.0338.0677-.0677.2201-.1015.4571-.017.22-.0424.4739-.0762.7617-.0339.2877-.0677.584-.1016.8886-.0169.2878-.0254.5248-.0254.711 0 .0169.0085.0338.0254.0508.0339.0338.0593.0508.0762.0508.1354 0 .2624-.0593.3809-.1778.1184-.1185.2454-.2031.3808-.2539l4.0625-3.7578 1.041-1.5996c.0847-.1185.2455-.2455.4825-.3809.2539-.1523.5078-.2285.7617-.2285.2539-.0169.4739.0593.6601.2285.2032.1693.3047.4994.3047.9903zm-5.5859-1.9805c.0846-.0677.1185-.1693.1015-.3047-.0169-.1354-.0677-.2539-.1523-.3555-.0677-.1015-.1608-.16077-.2793-.1777-.1185-.03385-.2285.02539-.3301.1777-.0508.0677-.1439.2032-.2793.4063-.1185.2031-.2454.4147-.3808.6348-.1185.2031-.2201.3808-.3047.5332-.0847.1523-.1016.2115-.0508.1777zm6.3476.7109v-.0507c0-.1355.0424-.2709.127-.4063.1016-.1523.2031-.2793.3047-.3809v-1.29488c0-1.40495-.0254-2.77604-.0762-4.11328-.0338-1.33724-.1185-2.7168-.2539-4.13867 0-.220056.0762-.380864.2285-.482426.1524-.11849.3132-.177735.4824-.177735.474-.084635.8295.025391 1.0664.330079.254.304692.4317.719402.5332 1.244142.1016.52474.1524 1.11719.1524 1.77734 0 .64323-.0169 1.26953-.0508 1.87891-.0169.60937-.0254 1.15104-.0254 1.625s.0593.79557.1778.96484c.22-.08463.33-.11849.33-.10156.017 0 .017.00846 0 .02539 0 0 .017-.01693.0508-.05078.0508-.05078.2116-.17774.4824-.38086.3724-.28776.8041-.4655 1.295-.5332.5078-.08464.9817-.12696 1.4218-.12696 1.0326.15235 1.752.47396 2.1582.96485.4063.47396.584 1.0664.5332 1.77734-.0507.69406-.2962 1.47266-.7363 2.33596-.4232.8463-.9564 1.7265-1.5996 2.6406-.6432.8971-1.3542 1.7943-2.1328 2.6914-.7787.8802-1.5319 1.7096-2.2598 2.4883-.1523 0-.3301-.0254-.5332-.0762-.1862-.0508-.3639-.1269-.5332-.2285s-.3131-.2285-.4316-.3809c-.1185-.1523-.1778-.33-.1778-.5332v-6.6269zm2.6661 1.9551v.3555c.0169.1862.0338.3893.0507.6094.017.2031.0254.3977.0254.5839.017.1862.0254.3047.0254.3555v.2793.4063c.0169.1354.0254.2708.0254.4062v.2539c.1862-.0338.4486-.2708.7871-.7109.3386-.4401.6856-.9479 1.041-1.5235.3555-.5924.6856-1.1849.9903-1.7773.3047-.5925.5332-1.058.6855-1.3965.0677-.1693.1354-.3724.2031-.6094.0677-.2369.1101-.4739.127-.71091.0338-.2539.0169-.48242-.0508-.68554-.0508-.20313-.1693-.36394-.3555-.48243-.3046 0-.6347.07618-.9902.22852-.3385.15234-.6771.34701-1.0156.58398-.3216.23698-.6179.49938-.8887.78708-.2539.2709-.4401.5332-.5586.7871-.0169.0847-.0338.237-.0508.4571 0 .2031-.0084.4232-.0254.6601 0 .237-.0084.4655-.0253.6856zm8.2011 5.5606c-.1692-1.6928-.3131-3.14-.4316-4.3418-.1185-1.2019-.2201-2.209-.3047-3.0215s-.1608-1.4558-.2285-1.92971c-.0508-.49089-.0931-.85482-.127-1.0918-.0338-.25391-.0592-.42318-.0761-.50781-.017-.08464-.0254-.13542-.0254-.15235v-.10156c0-.1862.0761-.33854.2285-.45703.1693-.13542.3385-.20312.5078-.20312.2539 0 .5247.04231.8125.12695.3047.08463.5078.26237.6094.5332.1523.82943.2539 1.66732.3047 2.51363.0677.8464.1184 1.6928.1523 2.5391.0508.8294.11 1.6673.1777 2.5137.0847.8463.2285 1.6842.4317 2.5137 0 .0338.0084.1015.0254.2031.0338.1015.0592.2116.0761.3301.0339.1184.0593.2285.0762.33.0169.1016.0254.1693.0254.2032v.0507c0 .017.0085.0339.0254.0508 0 .2031-.0931.4063-.2793.6094s-.3809.2878-.584.2539c-.0508-.0169-.1777-.0423-.3808-.0762-.1862-.0508-.3132-.0931-.3809-.1269-.0508-.017-.1185-.0508-.2031-.1016-.0847-.0677-.1693-.1354-.2539-.2031-.0677-.0677-.127-.1439-.1778-.2285-.0508-.0847-.0508-.1608 0-.2285zm-1.4219-18.509809c0-.11849.0931-.220052.2793-.304688.2032-.101562.3555-.1523436.4571-.1523436.2539 0 .5332.0761716.8379.2285156.3216.135417.4824.347005.4824.634766 0 .287759-.0423.482419-.127.583979-.0677.10157-.2454.15235-.5332.15235-.3047 0-.6178-.10156-.9394-.30469-.3047-.20312-.4571-.482421-.4571-.837889zm11.8575 18.611309c-.237-.3385-.4401-.804-.6094-1.3965-.1523-.6093-.3047-1.2441-.457-1.9043-.1355-.677-.2624-1.3287-.3809-1.955-.1185-.6433-.2454-1.1511-.3809-1.5235-.1184-.3893-.2539-.6094-.4062-.6601-.1523-.0508-.3301.1777-.5332.6855l-2.209 6.8047c-.0846.237-.1862.4063-.3047.5078-.1185.0846-.3131.127-.584.127-.1354 0-.2793-.017-.4316-.0508-.1523-.0508-.2962-.1185-.4316-.2031-.1355-.0847-.254-.1862-.3555-.3047-.0846-.1185-.1354-.2539-.1524-.4063.0508-.2031.0931-.5755.127-1.1172.0508-.5416.0846-1.1679.1016-1.8789.0169-.7109.0253-1.4557.0253-2.2343.017-.7956.017-1.5319 0-2.209 0-.694-.0084-1.2865-.0253-1.77738-.017-.50781-.0339-.83789-.0508-.99023 0-.16927 0-.33854 0-.50781.0169-.1862.0423-.35547.0761-.50781.0508-.15235.127-.27084.2286-.35547.1185-.10157.2962-.15235.5332-.15235.3216 0 .6178.13542.8886.40625.2878.27084.4317.5586.4317.86328 0 .44011-.0254.88021-.0762 1.32032-.0338.4232-.0508.8548-.0508 1.2949v.6856c0 .1862.0339.4147.1016.6855.0508-.1354.1354-.3724.2539-.7109.1185-.3386.2454-.694.3809-1.0664.1523-.3724.2877-.71943.4062-1.04105.1185-.33854.2031-.57552.2539-.71093.1185-.33855.2962-.66016.5332-.96485.237-.32161.5501-.49935.9395-.5332.2539-.01693.4824.05078.6855.20312.2201.15235.4063.35547.5586.60938.1524.23698.2793.49088.3809.76172.1015.2539.1777.47396.2285.66015l1.3711 6.32226 1.0664 2.8945c.0169.017.0254.0677.0254.1524v.1523c0 .2032-.0508.4063-.1524.6094-.0846.1862-.2454.2793-.4824.2793-.2878 0-.584-.0762-.8887-.2285-.3046-.1693-.5162-.3809-.6347-.6348zm9.1914-6.2207c-.1524.2708-.3301.6009-.5332.9902-.1862.3724-.3893.7787-.6094 1.2188-.2201.4232-.4655.8548-.7363 1.2949-.2539.4232-.5248.8125-.8125 1.168-.2709.3555-.5586.6601-.8633.9141-.3047.2369-.6178.3808-.9395.4316-.1354 0-.2877-.0085-.457-.0254-.1693-.0339-.3385-.0762-.5078-.127-.1693-.0677-.3132-.1523-.4316-.2539-.1016-.1184-.1524-.2708-.1524-.457.0169-1.7265.1439-3.2923.3809-4.6973.2369-1.4218.6093-2.666 1.1172-3.73238.5078-1.08333 1.1595-1.98046 1.955-2.6914.7956-.71094 1.7605-1.21875 2.8946-1.52344h.1777c.1016-.01693.1693-.02539.2031-.02539.5078-.01693.8718.22005 1.0918.71094.237.47396.4063 1.23568.5078 2.28515.1185 1.03256.1947 2.36982.2286 4.01172.0507 1.625.1438 3.5801.2792 5.8652.0508.1862.0762.347.0762.4825.0169.1354.0254.2962.0254.4824 0 .2539-.0762.4485-.2285.584-.1523.1185-.347.1777-.584.1777-.4909 0-.8379-.1354-1.041-.4062-.2031-.2709-.3385-.6348-.4063-1.0918 0-.017-.0169-.1524-.0507-.4063-.017-.2539-.0508-.5417-.1016-.8633-.0339-.3385-.0677-.6771-.1016-1.0156-.0338-.3385-.0592-.6178-.0761-.8379v-.1016c-.0339-.1692-.0593-.3808-.0762-.6347 0-.2539-.0169-.4994-.0508-.7364-.0338-.2877-.0592-.5755-.0762-.8632zm-.5586-5.02733c-.457.33854-.9056.79557-1.3457 1.3711-.4401.57552-.7533 1.13413-.9395 1.67573-.0846.254-.1777.601-.2793 1.0411-.1015.4401-.1946.8802-.2793 1.3203-.0677.4232-.1269.8209-.1777 1.1933-.0508.3555-.0762.584-.0762.6856.017 0 .0339-.0169.0508-.0508.0339-.0339.0593-.0592.0762-.0762 1.0495-1.0156 1.7858-2.1074 2.209-3.2754.4401-1.1849.694-2.47978.7617-3.88473zm5.916 11.01953c-.0339-.6094-.0931-1.4219-.1777-2.4375-.0677-1.0325-.1524-2.099-.2539-3.1992-.0847-1.1003-.1778-2.1413-.2793-3.1231-.1016-.98173-.1862-1.74345-.2539-2.28512 0-.22005.1015-.36393.3046-.43164.2032-.06771.3978-.10156.584-.10156.237 0 .4825.06771.7364.20312.2708.13542.4401.32162.5078.5586 0 .06771.0084.19466.0254.38086.0169.16927.0253.347.0253.5332.017.1862.0339.3724.0508.55859.017.16927.0254.28776.0254.35547v.22848.1524c0 .0338.0085.0762.0254.1269.0169.0508.0423.1355.0762.2539.0338-.0338.0677-.0761.1015-.1269.0508-.0508.0847-.0846.1016-.1016.2708-.3893.5332-.72784.7871-1.0156.2539-.30469.5163-.58398.7871-.83789.2709-.27083.5671-.55013.8887-.83789.3385-.30469.7279-.65169 1.168-1.04102.1015-.08463.1777-.14388.2285-.17773.0508-.05078.0931-.08464.1269-.10156.0508-.03386.1016-.05079.1524-.05079.0508-.01692.1185-.02539.2031-.02539.2878 0 .5755.10157.8633.30469.3047.1862.457.44857.457.78711 0 .11849-.0423.24544-.1269.38086-.0847.11849-.1862.23698-.3047.35547-.1185.10156-.2455.19466-.3809.2793-.1185.08463-.2285.14388-.3301.17773-.4401.38932-.9056.83789-1.3964 1.3457-.4909.49091-.948 1.02411-1.3711 1.59961-.4232.5755-.7702 1.1764-1.0411 1.8027-.2708.6263-.4062 1.2526-.4062 1.8789 0 .5756.0423 1.1426.127 1.7012.0846.5586.1269 1.1257.1269 1.7012v.8887c-.1354.1354-.2539.2454-.3555.33-.1015.0847-.2454.127-.4316.127-.2878 0-.5671-.1185-.8379-.3555-.2708-.2539-.4486-.5078-.5332-.7617z" fill="#ccc"/></svg>